<svg width="256" height="256" viewBox="0 0 256 256" xmlns="http://www.w3.org/2000/svg">
  <!-- Morocco Trek Tours - Professional Logo Symbol Only -->
  <!-- High-quality vector design with transparent background -->

  <!-- Gradient Definitions -->
  <defs>
    <!-- Mountain Range Gradients -->
    <linearGradient id="mountainBase" x1="0%" y1="0%" x2="0%" y2="100%">
      <stop offset="0%" style="stop-color:#006b4a;stop-opacity:1" />
      <stop offset="30%" style="stop-color:#004d33;stop-opacity:1" />
      <stop offset="70%" style="stop-color:#003d26;stop-opacity:1" />
      <stop offset="100%" style="stop-color:#002a1f;stop-opacity:1" />
    </linearGradient>

    <linearGradient id="mountainMiddle" x1="0%" y1="0%" x2="0%" y2="100%">
      <stop offset="0%" style="stop-color:#5a8f6a;stop-opacity:1" />
      <stop offset="50%" style="stop-color:#3d6b52;stop-opacity:1" />
      <stop offset="100%" style="stop-color:#2d5a47;stop-opacity:1" />
    </linearGradient>

    <linearGradient id="mountainBack" x1="0%" y1="0%" x2="0%" y2="100%">
      <stop offset="0%" style="stop-color:#4a7c59;stop-opacity:0.8" />
      <stop offset="50%" style="stop-color:#2d5a47;stop-opacity:0.8" />
      <stop offset="100%" style="stop-color:#1a4d3a;stop-opacity:0.8" />
    </linearGradient>

    <!-- Path Gradient -->
    <linearGradient id="pathGradient" x1="0%" y1="0%" x2="100%" y2="0%">
      <stop offset="0%" style="stop-color:#B8860B;stop-opacity:1" />
      <stop offset="50%" style="stop-color:#DAA520;stop-opacity:1" />
      <stop offset="100%" style="stop-color:#B8860B;stop-opacity:1" />
    </linearGradient>

    <!-- Compass Gradients -->
    <radialGradient id="compassOuter" cx="50%" cy="50%" r="50%">
      <stop offset="0%" style="stop-color:#DAA520;stop-opacity:1" />
      <stop offset="70%" style="stop-color:#B8860B;stop-opacity:1" />
      <stop offset="100%" style="stop-color:#8B7355;stop-opacity:1" />
    </radialGradient>

    <radialGradient id="compassInner" cx="50%" cy="50%" r="50%">
      <stop offset="0%" style="stop-color:#8B7355;stop-opacity:1" />
      <stop offset="50%" style="stop-color:#654321;stop-opacity:1" />
      <stop offset="100%" style="stop-color:#2d1810;stop-opacity:1" />
    </radialGradient>

    <!-- Boot Gradient -->
    <linearGradient id="bootGradient" x1="0%" y1="0%" x2="0%" y2="100%">
      <stop offset="0%" style="stop-color:#8B4513;stop-opacity:1" />
      <stop offset="50%" style="stop-color:#654321;stop-opacity:1" />
      <stop offset="100%" style="stop-color:#2d1810;stop-opacity:1" />
    </linearGradient>

    <!-- Shadow Filters -->
    <filter id="softShadow" x="-20%" y="-20%" width="140%" height="140%">
      <feDropShadow dx="2" dy="4" stdDeviation="3" flood-color="#000000" flood-opacity="0.2"/>
    </filter>

    <filter id="compassGlow" x="-30%" y="-30%" width="160%" height="160%">
      <feGaussianBlur stdDeviation="2" result="coloredBlur"/>
      <feMerge>
        <feMergeNode in="coloredBlur"/>
        <feMergeNode in="SourceGraphic"/>
      </feMerge>
    </filter>
  </defs>

  <!-- Background (Transparent) -->

  <!-- Mountain Ranges -->
  <!-- Background Layer -->
  <path d="M32 208 L56 176 L80 192 L104 160 L128 176 L152 144 L176 160 L200 128 L224 144 L240 112 Z"
        fill="url(#mountainBack)"
        stroke="#1a4d3a"
        stroke-width="2"
        filter="url(#softShadow)"/>

  <!-- Middle Layer -->
  <path d="M24 224 L48 192 L72 208 L96 176 L120 192 L144 160 L168 176 L192 144 L216 160 L232 128 Z"
        fill="url(#mountainMiddle)"
        stroke="#2d5a47"
        stroke-width="2"/>

  <!-- Foreground Main Mountains -->
  <path d="M40 240 L64 208 L88 224 L112 192 L136 208 L160 176 L184 192 L208 160 L232 176 Z"
        fill="url(#mountainBase)"
        stroke="#004d33"
        stroke-width="3"
        filter="url(#softShadow)"/>

  <!-- Snow Caps -->
  <ellipse cx="64" cy="212" rx="4" ry="3" fill="#f8f8f8" opacity="0.95"/>
  <ellipse cx="112" cy="196" rx="4" ry="3" fill="#f8f8f8" opacity="0.95"/>
  <ellipse cx="160" cy="180" rx="4" ry="3" fill="#f8f8f8" opacity="0.95"/>
  <ellipse cx="208" cy="164" rx="4" ry="3" fill="#f8f8f8" opacity="0.95"/>

  <!-- Trekking Paths -->
  <!-- Main Path -->
  <path d="M16 248 Q48 224 80 240 Q112 224 144 240 Q176 224 208 240 Q224 232 240 224"
        stroke="url(#pathGradient)"
        stroke-width="6"
        fill="none"
        stroke-linecap="round"
        stroke-dasharray="3,2"
        opacity="0.9"/>

  <!-- Secondary Path -->
  <path d="M32 252 Q64 228 96 244 Q128 228 160 244 Q192 228 224 244"
        stroke="#DAA520"
        stroke-width="4"
        fill="none"
        stroke-linecap="round"
        opacity="0.7"/>

  <!-- Path Highlights -->
  <circle cx="80" cy="238" r="1.5" fill="#FFD700" opacity="0.8"/>
  <circle cx="144" cy="238" r="1.5" fill="#FFD700" opacity="0.8"/>
  <circle cx="208" cy="238" r="1.5" fill="#FFD700" opacity="0.8"/>

  <!-- Compass Rose -->
  <circle cx="128" cy="96" r="16" fill="url(#compassOuter)" stroke="#8B7355" stroke-width="3" filter="url(#compassGlow)"/>
  <circle cx="128" cy="96" r="12" fill="none" stroke="#654321" stroke-width="2"/>
  <circle cx="128" cy="96" r="8" fill="url(#compassInner)"/>
  <circle cx="128" cy="96" r="3" fill="#2d1810"/>

  <!-- Compass Direction Arrows -->
  <!-- North (Red) -->
  <path d="M128 80 L131 86 L128 84 L125 86 Z" fill="#8B0000"/>
  <!-- South (Green) -->
  <path d="M128 112 L125 106 L128 108 L131 106 Z" fill="#004d33"/>
  <!-- East (Brown) -->
  <path d="M144 96 L138 99 L140 96 L138 93 Z" fill="#654321"/>
  <!-- West (Brown) -->
  <path d="M112 96 L118 93 L116 96 L118 99 Z" fill="#654321"/>

  <!-- Direction Labels (Subtle) -->
  <text x="128" y="75" text-anchor="middle" font-family="Arial, sans-serif" font-size="6" fill="#2d1810" opacity="0.6">N</text>
  <text x="128" y="121" text-anchor="middle" font-family="Arial, sans-serif" font-size="6" fill="#2d1810" opacity="0.6">S</text>
  <text x="149" y="100" text-anchor="middle" font-family="Arial, sans-serif" font-size="6" fill="#2d1810" opacity="0.6">E</text>
  <text x="107" y="100" text-anchor="middle" font-family="Arial, sans-serif" font-size="6" fill="#2d1810" opacity="0.6">W</text>

  <!-- Trekking Boots -->
  <!-- Left Boot -->
  <ellipse cx="72" cy="252" rx="16" ry="8" fill="url(#bootGradient)" stroke="#654321" stroke-width="2" filter="url(#softShadow)"/>
  <ellipse cx="72" cy="249" rx="10" ry="5" fill="#654321"/>
  <rect x="60" y="247" width="24" height="6" fill="#654321" rx="3"/>
  <!-- Boot Laces -->
  <path d="M66 244 L78 244 M66 242 L78 242" stroke="#2d1810" stroke-width="1.5"/>

  <!-- Right Boot -->
  <ellipse cx="184" cy="252" rx="16" ry="8" fill="url(#bootGradient)" stroke="#654321" stroke-width="2" filter="url(#softShadow)"/>
  <ellipse cx="184" cy="249" rx="10" ry="5" fill="#654321"/>
  <rect x="172" y="247" width="24" height="6" fill="#654321" rx="3"/>
  <!-- Boot Laces -->
  <path d="M178 244 L190 244 M178 242 L190 242" stroke="#2d1810" stroke-width="1.5"/>

  <!-- Subtle Background Pattern (Optional) -->
  <!-- Uncomment if you want a subtle background pattern -->
  <!--
  <defs>
    <pattern id="subtlePattern" patternUnits="userSpaceOnUse" width="20" height="20">
      <circle cx="10" cy="10" r="1" fill="#004d33" opacity="0.05"/>
    </pattern>
  </defs>
  <rect width="100%" height="100%" fill="url(#subtlePattern)" opacity="0.1"/>
  -->
</svg>