<?xml version="1.0" encoding="UTF-8"?><svg width="64" height="64" viewBox="0 0 64 64" xmlns="http://www.w3.org/2000/svg" aria-hidden="true" role="img"><defs><linearGradient id="g1" x1="0" x2="1" y1="0" y2="1"><stop offset="0" stop-color="#25D366"/><stop offset="1" stop-color="#128C7E"/></linearGradient></defs><title>WhatsApp Chat — Morocco Tours Gate</title><rect width="64" height="64" rx="12" fill="url(#g1)"/><g transform="translate(10,10) scale(0.85)"><path d="M29.9 16.3c-8.6 0-15.6 7-15.6 15.6 0 2.7.7 5.2 2 7.5L14 44l4.9-1.3c2.2 1.2 4.8 1.8 7.4 1.8 8.6 0 15.6-7 15.6-15.6S38.5 16.3 29.9 16.3z" fill="#fff" opacity="0.06"/><path d="M29.9 9C18.6 9 9.9 17.7 9.9 29c0 3.6.9 7 2.6 10.1L8 49l10.2-4.1c2.8 1.5 6 2.3 9.7 2.3 11.3 0 19.9-8.7 19.9-19.9S41.2 9 29.9 9z" fill="#fff" opacity="0.06"/><path d="M23.4 41.2c-2.2 0-.9-.9-5.1-2.5-4.2-1.6-7.8-5.8-8.4-6.5-.6-.7-3.6-4.4-3.6-8.4S9.1 12.6 18.8 12c9.7-.6 16.8 6.5 17.4 7 0.6.5 3 3.9 3 8.5 0 4.6-2.8 8.8-3.6 9.6-.8.8-4.4 3.9-9.1 3.9z" fill="#fff"/><path d="M23.8 20.8c-3.6 0-6.4 2.7-6.4 6 0 1.1.3 1.8.9 2.5.1.2.1.3 0 .4l-1.3 3.8c-.1.3 0 .6.2.8.2.2.5.3.8.2l3.9-1.3c.2 0 .3 0 .4 0 0 .1.6.3 1.9.3 3.6 0 6.4-2.7 6.4-6s-2.8-6-6.4-6z" fill="#25D366"/><path d="M26.2 23.6c-.2-.1-1.4-.6-1.6-.6-.2 0-.4 0-.6.2-.2.2-.8.6-1 .7-.2.1-.4.1-.6-.1-.2-.1-.9-.5-1.8-1.1-.6-.4-1-.4-1.4-.5-.4-.1-1-.2-1.6 0-.6.2-1.4.9-1.4 2.2 0 1.3.9 2.7 2.1 3.8 1.1 1.1 2.6 2.8 5.1 3.6 2.4.8 2.6.7 3 .6.4-.1 1.4-.6 1.6-1.3.2-.7.2-1.4.1-1.6-.1-.2-.8-.5-1-.6z" fill="#fff"/></g><g transform="translate(40,40)"><rect x="0" y="0" width="22" height="12" rx="6" fill="#fff" opacity="0.95"/><text x="11" y="8" font-family="Poppins, Arial, sans-serif" font-size="7" fill="#D44A24" font-weight="600" text-anchor="middle">Book</text></g></svg>