<svg width="400" height="100" viewBox="0 0 400 100" xmlns="http://www.w3.org/2000/svg">
  <!-- Import Icon Group -->
  <g transform="translate(20, 10) scale(0.2)">
     <!-- Same paths as icon -->
      <defs>
        <linearGradient id="goldGradient2" x1="0%" y1="0%" x2="100%" y2="100%">
        <stop offset="0%" style="stop-color:#C49102;stop-opacity:1" />
        <stop offset="100%" style="stop-color:#FFD700;stop-opacity:1" />
        </linearGradient>
        <linearGradient id="brownGradient2" x1="0%" y1="0%" x2="0%" y2="100%">
        <stop offset="0%" style="stop-color:#8B4513;stop-opacity:1" />
        <stop offset="100%" style="stop-color:#5D2906;stop-opacity:1" />
        </linearGradient>
      </defs>

      <path d="M 50 350 L 50 200 A 150 150 0 0 1 350 200 L 350 350" fill="none" stroke="#8B4513" stroke-width="20" stroke-linecap="round"/>
      <path d="M 55 350 L 140 240 L 225 350 Z" fill="url(#brownGradient2)" />
      <path d="M 175 350 L 262.5 240 L 345 350 Z" fill="url(#brownGradient2)" opacity="0.9"/>
       <rect x="50" y="350" width="300" height="10" fill="#8B4513" />

      <g transform="translate(200, 180)">
        <path d="M 0 -60 L 15 -15 L 60 0 L 15 15 L 0 60 L -15 15 L -60 0 L -15 -15 Z" fill="#F4A460" />
        <path d="M 0 -70 L 10 -10 L 70 0 L 10 10 L 0 70 L -10 10 L -70 0 L -10 -10 Z" fill="url(#goldGradient2)" />
         <text x="0" y="-80" font-family="serif" font-size="30" fill="#8B4513" text-anchor="middle" font-weight="bold">N</text>
    <text x="80" y="5" font-family="serif" font-size="30" fill="#8B4513" text-anchor="middle" font-weight="bold">E</text>
    <text x="-80" y="5" font-family="serif" font-size="30" fill="#8B4513" text-anchor="middle" font-weight="bold">W</text>
      </g>
  </g>

  <!-- Text -->
  <text x="110" y="60" font-family="'Times New Roman', Times, serif" font-size="32" fill="#8B4513" font-weight="bold" letter-spacing="1">MOROCCO TOURS GATE</text>
</svg>
