<svg width="400" height="120" viewBox="0 0 400 120" fill="none" xmlns="http://www.w3.org/2000/svg">
  <!-- Morocco Trek Tours - Professional Vector Logo (Transparent) -->
  
  <!-- Icon Group -->
  <g transform="translate(10, 10) scale(0.2)">
    <!-- Stylized Footprint Shape -->
    <path d="M125 0C80 0 40 40 40 100C40 160 80 220 125 280C140 300 160 300 175 280C220 220 260 160 260 100C260 40 220 0 175 0C165 0 135 0 125 0Z" 
          fill="#00685b" />
    <!-- Inner Details (Mountain and Trail) -->
    <path d="M80 230L150 120L220 230" stroke="#FFD700" stroke-width="12" stroke-linecap="round" stroke-linejoin="round" fill="none"/>
    <path d="M110 230L150 170L190 230" stroke="#FFD700" stroke-width="8" stroke-linecap="round" stroke-linejoin="round" fill="none"/>
    <path d="M150 230Q150 260 170 270T150 310" stroke="#FFD700" stroke-width="10" stroke-linecap="round" fill="none"/>
  </g>

  <!-- Text Group -->
  <text x="90" y="55" font-family="Poppins, Arial, sans-serif" font-size="36" font-weight="900" fill="#00685b" letter-spacing="1">MOROCCO</text>
  <text x="90" y="95" font-family="Poppins, Arial, sans-serif" font-size="28" font-weight="700" fill="#00685b" letter-spacing="0.5">TREK <tspan fill="#FFD700">TOURS</tspan></text>
</svg>
