<?xml version="1.0" encoding="UTF-8"?>
<svg version="1.1" xmlns="http://www.w3.org/2000/svg" width="500" height="500">
<path d="M0 0 C0 0.66 0 1.32 0 2 C0.598125 2.26554688 1.19625 2.53109375 1.8125 2.8046875 C7.9093551 6.13618332 11.43073051 12.77665834 14 19 C14.45052734 20.03833984 14.45052734 20.03833984 14.91015625 21.09765625 C19.15875457 32.61827402 18.16777219 46.63896172 14 58 C13.52273936 59.39559478 13.04623877 60.79144961 12.5703125 62.1875 C12.04978688 63.66769388 11.52634714 65.1468662 11 66.625 C10.7510498 67.33736816 10.50209961 68.04973633 10.24560547 68.78369141 C9.58588652 70.5580632 8.80122707 72.28487331 8 74 C7.01 74.33 6.02 74.66 5 75 C4.67 74.34 4.34 73.68 4 73 C3.70867187 73.73863281 3.41734375 74.47726563 3.1171875 75.23828125 C-3.50560228 91.62864463 -12.84736566 105.38636404 -24 119 C-33.67491081 130.92773915 -42.89868027 142.92654327 -51 156 C-51.50273437 156.76441406 -52.00546875 157.52882813 -52.5234375 158.31640625 C-59.41596968 169.09282561 -64.17685546 181.55127692 -67 194 C-65.68 193.67 -64.36 193.34 -63 193 C-62.85304687 194.24394531 -62.70609375 195.48789062 -62.5546875 196.76953125 C-60.95932228 209.05458432 -58.94627981 219.78193357 -48.7109375 227.87890625 C-42.19997808 232.14521984 -34.77844786 232.68135945 -27.1875 231.3125 C-23.56366441 229.8203324 -20.37614225 227.98596603 -17 226 C-16.34 226 -15.68 226 -15 226 C-14.62875 225.195625 -14.62875 225.195625 -14.25 224.375 C-13 222 -13 222 -11 219.0625 C-6.49471077 212.16377587 -6.19320114 206.09373747 -7 198 C-8.73693552 190.38615158 -11.58364724 183.12843604 -14.265625 175.80859375 C-14.66402588 174.71643555 -15.06242676 173.62427734 -15.47290039 172.49902344 C-16.26353873 170.34340163 -17.06430334 168.19145816 -17.87670898 166.04394531 C-23.07586739 152.01102646 -26.1354942 134.95668497 -19.9765625 120.6171875 C-18.875 118.6875 -18.875 118.6875 -17 116 C-16.34 116 -15.68 116 -15 116 C-15.02320313 117.16015625 -15.04640625 118.3203125 -15.0703125 119.515625 C-15.30207852 136.00462729 -12.9830295 149.98182312 -5.88671875 164.9609375 C-3.41586414 170.20380352 -1.08186305 175.50670321 1.25 180.8125 C1.90464233 182.28046021 1.90464233 182.28046021 2.57250977 183.77807617 C8.45548802 197.20837905 10.71574603 212.26161752 6.5 226.625 C2.27610695 237.05963476 -5.05885223 243.95780402 -15 249 C-24.26893042 252.40207933 -36.92291846 254.14673003 -46.2578125 249.99609375 C-56.96027534 244.36228905 -63.33737065 235.37342797 -67 224 C-68.22563255 219.70524341 -68.18389381 215.62671908 -68.1875 211.1875 C-68.19974609 210.40568359 -68.21199219 209.62386719 -68.22460938 208.81835938 C-68.23712576 203.82432178 -67.59922322 199.73445926 -66 195 C-66.66 195.33 -67.32 195.66 -68 196 C-69.65252247 213.20216165 -69.41870128 228.87778261 -58.3125 243.171875 C-57 245 -57 245 -57 247 C-65.12143791 245.26978062 -69.59680573 239.57300416 -74.140625 233.0390625 C-83.7481233 217.33605057 -85.51262356 199.00697804 -81.6875 181.1875 C-76.59010809 162.38004971 -66.52966794 145.49563804 -55 130 C-54.45553223 129.23945313 -53.91106445 128.47890625 -53.35009766 127.6953125 C-52.81819824 126.96054687 -52.28629883 126.22578125 -51.73828125 125.46875 C-51.26044189 124.80294922 -50.78260254 124.13714844 -50.2902832 123.45117188 C-49.86448975 122.97228516 -49.43869629 122.49339844 -49 122 C-48.34 122 -47.68 122 -47 122 C-46.74863281 121.44054687 -46.49726563 120.88109375 -46.23828125 120.3046875 C-44.80756377 117.64183792 -43.09646973 115.46832422 -41.1875 113.125 C-40.52105469 112.30257812 -39.85460937 111.48015625 -39.16796875 110.6328125 C-36.79027762 107.74531012 -34.39787638 104.87075601 -32 102 C-32.95777344 101.8040625 -33.91554688 101.608125 -34.90234375 101.40625 C-43.66726596 99.47936808 -51.37906642 96.76446447 -59.32592773 92.5546875 C-62.43213851 90.95842473 -64.45746392 89.95106537 -67.98828125 90.26953125 C-68.65214844 90.51058594 -69.31601563 90.75164062 -70 91 C-70.86358623 92.78141747 -70.86358623 92.78141747 -71 95 C-68.01734182 98.75237642 -64.90297958 100.02320499 -60.4375 101.5625 C-53.12575756 104.09380697 -53.12575756 104.09380697 -51 107 C-50.6875 109.875 -50.6875 109.875 -52 113 C-57.89672865 117.69579307 -65.61381317 119.07875574 -72.84570312 120.48095703 C-77.9237838 121.51708352 -81.56759351 123.31825469 -86 126 C-86.66 126 -87.32 126 -88 126 C-89.92931154 131.78793462 -89.17832349 136.6993561 -87.5625 142.4375 C-84.08461918 155.52095643 -83.70012637 169.3876425 -89 182 C-89.99 182 -90.98 182 -92 182 C-91.96519531 181.2471875 -91.93039063 180.494375 -91.89453125 179.71875 C-91.30802502 156.70536287 -100.67965978 137.70495397 -110.46337891 117.41674805 C-120.8242111 95.88098912 -127.90780995 72.04849358 -121.15625 48.13671875 C-117.04109158 36.97296129 -111.90582301 28.02488124 -103.515625 19.55078125 C-100.98559641 17.09002174 -100.98559641 17.09002174 -99.03125 14.4375 C-76.25564132 -12.89323042 -29.07349438 -17.69690962 0 0 Z M-74 17 C-74.845625 17.47953125 -75.69125 17.9590625 -76.5625 18.453125 C-83.64575774 22.66372821 -89.67583805 27.68261044 -95 34 C-95 34.66 -95 35.32 -95 36 C-95.66 36 -96.32 36 -97 36 C-105.01098368 49.74002239 -105.01098368 49.74002239 -109 65 C-108.67 65.66 -108.34 66.32 -108 67 C-107.22076172 66.16855469 -107.22076172 66.16855469 -106.42578125 65.3203125 C-105.72839844 64.59585938 -105.03101563 63.87140625 -104.3125 63.125 C-103.62800781 62.40570313 -102.94351563 61.68640625 -102.23828125 60.9453125 C-99.88595412 58.90088159 -97.86382455 58.14367019 -95 57 C-93.37469403 55.39411952 -93.37469403 55.39411952 -92.1875 53.5 C-91.76855469 52.8915625 -91.34960938 52.283125 -90.91796875 51.65625 C-89.83841102 50.02405704 -89.83841102 50.02405704 -90 48 C-88.02 48.33 -86.04 48.66 -84 49 C-84 49.66 -84 50.32 -84 51 C-83.34 51 -82.68 51 -82 51 C-82 51.66 -82 52.32 -82 53 C-80.68 53.33 -79.36 53.66 -78 54 C-77.43152344 53.27554688 -76.86304688 52.55109375 -76.27734375 51.8046875 C-72.32139507 46.85149633 -68.53682437 42.40096907 -63.55859375 38.48046875 C-61.16182806 36.20384169 -59.74173965 33.45850536 -58.23828125 30.5390625 C-57.82964844 30.03117187 -57.42101562 29.52328125 -57 29 C-55.68 29 -54.36 29 -53 29 C-51.54296875 30.9765625 -51.54296875 30.9765625 -50.1875 33.625 C-47.77086851 37.97740262 -45.36708496 40.84486263 -41.41796875 43.84375 C-40 45 -40 45 -39 47 C-38.34 47 -37.68 47 -37 47 C-36.01 48.98 -36.01 48.98 -35 51 C-34.54109375 50.55527344 -34.0821875 50.11054688 -33.609375 49.65234375 C-32.99578125 49.08644531 -32.3821875 48.52054688 -31.75 47.9375 C-31.14671875 47.36902344 -30.5434375 46.80054688 -29.921875 46.21484375 C-28 45 -28 45 -25.94921875 45.0703125 C-23.44450571 46.26494517 -22.57181776 47.6254426 -21.0625 49.9375 C-18.63543592 53.37940699 -17.07369923 54.71356866 -13 56 C-10.6875 58.125 -10.6875 58.125 -9 60 C-8.01 59.67 -7.02 59.34 -6 59 C-3.78806681 53.42208152 -3.66507991 48.07080743 -3.6875 42.125 C-3.67138672 41.27808594 -3.65527344 40.43117187 -3.63867188 39.55859375 C-3.63406003 33.53552094 -4.7655914 28.58475339 -7 23 C-6.01 23 -5.02 23 -4 23 C-6.22358583 17.21867685 -11.805531 14.83397054 -17 12 C-35.1906789 4.28358644 -57.22887471 6.79756545 -74 17 Z M-4 23 C-3.00093886 26.41345888 -1.86533647 29.23023119 -0.0625 32.3125 C6.8527862 44.33007602 5.8816103 57.63146232 4 71 C9.33879526 62.99180712 8.67982366 52.59092466 7.25 43.4375 C5.73517548 35.88471296 2.69820441 29.10766573 -2 23 C-2.66 23 -3.32 23 -4 23 Z M-55 38 C-55.66 39.32 -56.32 40.64 -57 42 C-56.01 42.33 -55.02 42.66 -54 43 C-54.33 43.9075 -54.66 44.815 -55 45.75 C-56.19605723 49.07045807 -56.19605723 49.07045807 -56 53 C-55.34 53.33 -54.68 53.66 -54 54 C-54.72753266 57.80718548 -55.61276572 61.55485569 -56.5625 65.3125 C-56.83191406 66.38113281 -57.10132813 67.44976562 -57.37890625 68.55078125 C-57.58386719 69.35902344 -57.78882813 70.16726562 -58 71 C-59.875 70.8125 -59.875 70.8125 -62 70 C-62.66 68.35 -63.32 66.7 -64 65 C-67.63 65.99 -71.26 66.98 -75 68 C-75.495 66.515 -75.495 66.515 -76 65 C-76.58007812 65.55429688 -77.16015625 66.10859375 -77.7578125 66.6796875 C-85.51669596 73.87521968 -85.51669596 73.87521968 -91 75 C-91.66 74.01 -92.32 73.02 -93 72 C-95.97 72.495 -95.97 72.495 -99 73 C-99 72.34 -99 71.68 -99 71 C-100.68272986 71.62501395 -102.34630643 72.30177383 -104 73 C-104.928125 73.37125 -105.85625 73.7425 -106.8125 74.125 C-109.40451049 75.91931451 -109.40451049 75.91931451 -109.4375 79.625 C-109.11286799 84.78092013 -108.32563027 90.34873947 -106 95 C-95.47725542 96.03164163 -86.11659822 90.727125 -77 86 C-69.26452647 83.42150882 -61.40406144 83.98113258 -54.11328125 87.40600586 C-52.20562465 88.36588023 -50.30286568 89.33467587 -48.40234375 90.30859375 C-44.23077127 92.38240648 -40.59495069 93.47108481 -36 94 C-34.67742187 94.2784375 -34.67742187 94.2784375 -33.328125 94.5625 C-30.11555088 94.98847668 -28.09045034 95.01677154 -25 94 C-21.64629156 90.60943762 -19.31560463 86.92037065 -16.99462891 82.77490234 C-16.06347215 81.11326523 -15.0708035 79.48652173 -14.07421875 77.86328125 C-10.88661391 72.9374751 -10.88661391 72.9374751 -10.2421875 67.32421875 C-11.2296253 64.29573684 -12.52900048 62.99052739 -15 61 C-15.825 60.690625 -16.65 60.38125 -17.5 60.0625 C-20.6948205 58.70470129 -22.01674376 56.79124953 -24 54 C-24.93285227 57.64660434 -25.34173639 59.34624343 -23.5625 62.75 C-23.046875 63.4925 -22.53125 64.235 -22 65 C-22 65.66 -22 66.32 -22 67 C-24.31 66.67 -26.62 66.34 -29 66 C-28.01 68.64 -27.02 71.28 -26 74 C-31.05714309 72.15219772 -34.23335457 70.84162951 -37 66 C-37.88852933 62.93166741 -38.62668525 59.86704961 -39.2890625 56.7421875 C-39.88891265 53.81115151 -39.88891265 53.81115151 -42 51 C-42.78890625 50.89816406 -43.5778125 50.79632813 -44.390625 50.69140625 C-47 50 -47 50 -48.984375 47.27734375 C-49.56703125 46.17519531 -50.1496875 45.07304687 -50.75 43.9375 C-51.81706352 41.94951427 -52.89595714 39.9676893 -54 38 C-54.33 38 -54.66 38 -55 38 Z M-86 57 C-88.35448165 59.55068845 -88.98327924 60.71017358 -89.1875 64.25 C-89.0946875 65.61125 -89.0946875 65.61125 -89 67 C-85.95474193 67.34706779 -85.95474193 67.34706779 -84.25 65.3125 C-82.75599789 63.04206418 -82.75599789 63.04206418 -83.1875 60.3125 C-83.75815152 57.83108618 -83.75815152 57.83108618 -86 57 Z " fill="#1F6554" transform="translate(267,171)"/>
<path d="M0 0 C0 0.66 0 1.32 0 2 C0.598125 2.26554688 1.19625 2.53109375 1.8125 2.8046875 C8.99023402 6.72680644 12.35456878 14.88642196 15.25 22.125 C16.39927355 28.06291332 16.15050238 33.9715435 16 40 C15.278125 39.649375 14.55625 39.29875 13.8125 38.9375 C10.6877295 37.89590983 9.11838004 38.10903428 6 39 C3.33333333 33.66666667 0.66666667 28.33333333 -2 23 C-2.66 23 -3.32 23 -4 23 C-4.639375 22.29875 -5.27875 21.5975 -5.9375 20.875 C-14.69877484 11.83110339 -27.47712707 8.75031199 -39.625 8.5 C-51.53797522 8.51758002 -63.78645881 11.7784458 -74 18 C-74.85722656 18.49113281 -75.71445313 18.98226562 -76.59765625 19.48828125 C-83.37634116 23.54430317 -91.35995339 28.71990678 -95 36 C-95.66 36 -96.32 36 -97 36 C-97.40605469 37.06347656 -97.40605469 37.06347656 -97.8203125 38.1484375 C-99.02844723 41.06876316 -100.41676257 43.82185965 -101.875 46.625 C-104.73496146 52.27482582 -106.99210972 57.99995141 -109 64 C-109.66 64 -110.32 64 -111 64 C-110.67 64.99 -110.34 65.98 -110 67 C-109.84523558 68.91449317 -109.72520046 70.83187696 -109.625 72.75 C-109.1027889 80.34346298 -107.63219111 87.57814986 -106 95 C-98.62888321 94.15143501 -92.82549755 92.68197691 -86.32421875 89.1015625 C-82.89203058 87.47487836 -79.76211521 87.33001011 -76 87 C-75.01 86.34 -74.02 85.68 -73 85 C-72.01 85 -71.02 85 -70 85 C-69.87188612 90.63701068 -69.87188612 90.63701068 -70.75 93.125 C-70.8325 93.74375 -70.915 94.3625 -71 95 C-67.99350159 98.73760721 -64.9103577 100.02066168 -60.4375 101.5625 C-53.12575756 104.09380697 -53.12575756 104.09380697 -51 107 C-50.6875 109.875 -50.6875 109.875 -52 113 C-57.89672865 117.69579307 -65.61381317 119.07875574 -72.84570312 120.48095703 C-77.9237838 121.51708352 -81.56759351 123.31825469 -86 126 C-86.66 126 -87.32 126 -88 126 C-89.92931154 131.78793462 -89.17832349 136.6993561 -87.5625 142.4375 C-84.08461918 155.52095643 -83.70012637 169.3876425 -89 182 C-89.99 182 -90.98 182 -92 182 C-91.96519531 181.2471875 -91.93039063 180.494375 -91.89453125 179.71875 C-91.30802502 156.70536287 -100.67965978 137.70495397 -110.46337891 117.41674805 C-120.8242111 95.88098912 -127.90780995 72.04849358 -121.15625 48.13671875 C-117.04109158 36.97296129 -111.90582301 28.02488124 -103.515625 19.55078125 C-100.98559641 17.09002174 -100.98559641 17.09002174 -99.03125 14.4375 C-76.25564132 -12.89323042 -29.07349438 -17.69690962 0 0 Z " fill="#1E6453" transform="translate(267,171)"/>
<path d="M0 0 C0.99 0 1.98 0 3 0 C12.81533459 11.83074996 13.58320003 25.4199992 13 40 C15.07134673 32.16097081 13.94844304 23.96014696 13 16 C15.475 15.505 15.475 15.505 18 15 C18.33 14.01 18.66 13.02 19 12 C19.99 13.32 20.98 14.64 22 16 C22.33 12.7 22.66 9.4 23 6 C23.33 6 23.66 6 24 6 C24.30111823 16.13764691 24.53772028 25.35643658 21 35 C20.52273936 36.39559478 20.04623877 37.79144961 19.5703125 39.1875 C19.04978688 40.66769388 18.52634714 42.1468662 18 43.625 C17.7510498 44.33736816 17.50209961 45.04973633 17.24560547 45.78369141 C16.58588652 47.5580632 15.80122707 49.28487331 15 51 C13.515 51.495 13.515 51.495 12 52 C11.67 51.34 11.34 50.68 11 50 C10.70867187 50.73863281 10.41734375 51.47726563 10.1171875 52.23828125 C5.27327401 64.22620553 -1.55108475 80.64645545 -12 89 C-15.6875 89.6875 -15.6875 89.6875 -19 90 C-19 90.66 -19 91.32 -19 92 C-18.34 92 -17.68 92 -17 92 C-17 92.66 -17 93.32 -17 94 C-18.11375 94.474375 -19.2275 94.94875 -20.375 95.4375 C-22.26710994 96.25306463 -24.15712709 97.07856355 -26 98 C-26 96.68 -26 95.36 -26 94 C-26.94875 94.04125 -27.8975 94.0825 -28.875 94.125 C-32 94 -32 94 -34 92 C-32.47987323 86.59510481 -28.72614782 83.01507372 -25 79 C-25.95777344 78.8040625 -26.91554688 78.608125 -27.90234375 78.40625 C-36.64373057 76.48565099 -44.36617701 73.76467303 -52.32592773 69.64257812 C-56.03411181 67.75480777 -58.8020902 66.51092313 -63 67 C-63 65.35 -63 63.7 -63 62 C-63.7425 62.309375 -64.485 62.61875 -65.25 62.9375 C-67.52298743 63.81569969 -69.6032517 64.58676753 -72 65 C-72.66 64.67 -73.32 64.34 -74 64 C-67.33583571 60.19190612 -60.52497987 59.8954158 -53 61 C-48.9501526 62.38056099 -45.19987857 64.36096139 -41.40234375 66.3125 C-33.96324816 70.00215476 -26.18820883 70.4184076 -18 71 C-17.73832031 70.44699219 -17.47664063 69.89398438 -17.20703125 69.32421875 C-15.84771156 66.7067585 -14.29624018 64.28446661 -12.6875 61.8125 C-9.29347734 56.49986696 -9.29347734 56.49986696 -6 51.125 C-5.5875 50.44695312 -5.175 49.76890625 -4.75 49.0703125 C-3.76836599 46.36059361 -4.18320618 44.72718381 -5 42 C-6.67012898 39.74532588 -7.85486846 39.05442433 -10.5 38.0625 C-13.36417361 36.84522622 -14.35838313 35.59202663 -16 33 C-16.79356801 34.74671588 -16.79356801 34.74671588 -17 37 C-16.01810813 38.67739862 -15.01866229 40.34467377 -14 42 C-14.33 42.99 -14.66 43.98 -15 45 C-16.98 44.67 -18.96 44.34 -21 44 C-20.34 46.31 -19.68 48.62 -19 51 C-23.8547265 50.58388059 -25.80439079 48.54108048 -29 45 C-29.66 44.34 -30.32 43.68 -31 43 C-31.58936531 41.04014884 -32.1009018 39.05631422 -32.5625 37.0625 C-33.28469543 33.98287908 -33.9994349 31.0016953 -35 28 C-35.598125 28.226875 -36.19625 28.45375 -36.8125 28.6875 C-37.534375 28.790625 -38.25625 28.89375 -39 29 C-41.83327754 26.76954747 -43.14589039 24.0207146 -44.6875 20.8125 C-45.12449219 19.91144531 -45.56148437 19.01039063 -46.01171875 18.08203125 C-46.33785156 17.39496094 -46.66398437 16.70789063 -47 16 C-47.66 16.99 -48.32 17.98 -49 19 C-48.34 19.33 -47.68 19.66 -47 20 C-47.66 23.3 -48.32 26.6 -49 30 C-48.01 30.33 -47.02 30.66 -46 31 C-46.68936071 34.91121498 -47.78250181 38.55508596 -49.0625 42.3125 C-49.42472656 43.38113281 -49.78695312 44.44976562 -50.16015625 45.55078125 C-50.43730469 46.35902344 -50.71445313 47.16726562 -51 48 C-52.921875 47.66015625 -52.921875 47.66015625 -55 47 C-56.25 44.4375 -56.25 44.4375 -57 42 C-57.886875 42.495 -58.77375 42.99 -59.6875 43.5 C-62.87586238 44.94378674 -64.58187546 45.30159922 -68 45 C-68.33 44.34 -68.66 43.68 -69 43 C-69.87011719 43.83144531 -69.87011719 43.83144531 -70.7578125 44.6796875 C-78.51669596 51.87521968 -78.51669596 51.87521968 -84 53 C-84.66 51.68 -85.32 50.36 -86 49 C-88.97 49.495 -88.97 49.495 -92 50 C-92 49.34 -92 48.68 -92 48 C-92.83144531 48.54140625 -92.83144531 48.54140625 -93.6796875 49.09375 C-94.40414062 49.5578125 -95.12859375 50.021875 -95.875 50.5 C-96.59429687 50.9640625 -97.31359375 51.428125 -98.0546875 51.90625 C-100 53 -100 53 -102 53 C-102.33 54.32 -102.66 55.64 -103 57 C-103.33 51.72 -103.66 46.44 -104 41 C-103.34 41 -102.68 41 -102 41 C-101.67 40.01 -101.34 39.02 -101 38 C-101 39.65 -101 41.3 -101 43 C-100.22076172 42.16855469 -100.22076172 42.16855469 -99.42578125 41.3203125 C-98.72839844 40.59585938 -98.03101563 39.87140625 -97.3125 39.125 C-96.62800781 38.40570313 -95.94351563 37.68640625 -95.23828125 36.9453125 C-93 35 -93 35 -90.39453125 33.99609375 C-87.47788215 32.78280579 -86.84007374 31.68326745 -85.375 28.9375 C-83.30859662 25.10286554 -83.30859662 25.10286554 -80 24 C-79.01 24.66 -78.02 25.32 -77 26 C-77 26.66 -77 27.32 -77 28 C-76.34 28 -75.68 28 -75 28 C-75 28.66 -75 29.32 -75 30 C-71.9190604 29.67928786 -70.40294119 29.42157944 -68.2265625 27.14453125 C-67.69804687 26.37496094 -67.16953125 25.60539062 -66.625 24.8125 C-64.42481072 21.78187052 -62.38516767 19.30998239 -59.4375 17 C-55.30308674 13.68872784 -52.72418333 9.49041209 -50 5 C-47.6796875 5.20703125 -47.6796875 5.20703125 -45 6 C-43.4453125 8.07421875 -43.4453125 8.07421875 -42.125 10.6875 C-39.72002142 15.06531257 -37.3109171 17.87239073 -33.3203125 20.84375 C-32.66675781 21.41609375 -32.66675781 21.41609375 -32 22 C-32 22.66 -32 23.32 -32 24 C-31.34 24 -30.68 24 -30 24 C-28.375 25.5 -28.375 25.5 -27 27 C-26.61328125 26.55527344 -26.2265625 26.11054688 -25.828125 25.65234375 C-25.30734375 25.08644531 -24.7865625 24.52054688 -24.25 23.9375 C-23.73953125 23.36902344 -23.2290625 22.80054688 -22.703125 22.21484375 C-21 21 -21 21 -18.98046875 21.0703125 C-16.44651719 22.25982033 -15.58461122 23.60584486 -14.0625 25.9375 C-11.63543592 29.37940699 -10.07369923 30.71356866 -6 32 C-4.64748503 33.31387169 -3.31054623 34.64426252 -2 36 C-1.34 36 -0.68 36 0 36 C1.99357701 30.1933114 2.30418499 24.98887302 2.25 18.875 C2.25773437 17.99457031 2.26546875 17.11414063 2.2734375 16.20703125 C2.25958208 11.61396066 1.95035342 8.22576574 0 4 C0 2.68 0 1.36 0 0 Z M-79 34 C-81.35448165 36.55068845 -81.98327924 37.71017358 -82.1875 41.25 C-82.0946875 42.61125 -82.0946875 42.61125 -82 44 C-78.95474193 44.34706779 -78.95474193 44.34706779 -77.25 42.3125 C-75.75599789 40.04206418 -75.75599789 40.04206418 -76.1875 37.3125 C-76.75815152 34.83108618 -76.75815152 34.83108618 -79 34 Z " fill="#1D6352" transform="translate(260,194)"/>
<path d="M0 0 C7.32226207 7.32226207 9.7487059 14.65634934 9.875 24.8125 C9.8572845 35.2216201 7.47279736 43.61552273 0.625 51.625 C-4.98198813 56.67978475 -9.44024848 58.95916804 -17.03125 58.8359375 C-22.14295594 58.37588397 -25.43792698 56.54028063 -29.0625 53 C-29.86746814 51.89916608 -30.63741429 50.77207295 -31.375 49.625 C-31.76945313 49.03332031 -32.16390625 48.44164062 -32.5703125 47.83203125 C-37.09462862 39.65345979 -36.71001529 29.05734332 -34.52734375 20.17578125 C-31.38323131 11.85187679 -25.61679411 3.30093522 -17.42578125 -0.78515625 C-11.58592927 -2.46480891 -5.59919687 -2.28115428 0 0 Z " fill="#1C6251" transform="translate(279.375,101.375)"/>
<path d="M0 0 C2.3203125 0.20703125 2.3203125 0.20703125 5 1 C6.5546875 3.07421875 6.5546875 3.07421875 7.875 5.6875 C10.27997858 10.06531257 12.6890829 12.87239073 16.6796875 15.84375 C17.33324219 16.41609375 17.33324219 16.41609375 18 17 C18 17.66 18 18.32 18 19 C18.66 19 19.32 19 20 19 C21.625 20.5 21.625 20.5 23 22 C23.38671875 21.55527344 23.7734375 21.11054688 24.171875 20.65234375 C24.69265625 20.08644531 25.2134375 19.52054688 25.75 18.9375 C26.26046875 18.36902344 26.7709375 17.80054688 27.296875 17.21484375 C29 16 29 16 31.01953125 16.0703125 C33.55348281 17.25982033 34.41538878 18.60584486 35.9375 20.9375 C38.40432953 24.43062954 39.93981313 25.5789346 44 27 C47.02663623 29.32209858 49.64312752 31.53285758 50.5625 35.3125 C49.72541183 39.31192125 48.6814718 43.26682407 47 47 C46.01 47.495 46.01 47.495 45 48 C44.67 48.99 44.34 49.98 44 51 C43.34 51 42.68 51 42 51 C42.94727464 48.56415094 43.85103113 46.25089494 45.1875 44 C46.29600746 41.27136626 45.92177965 39.76533896 45 37 C43.32987102 34.74532588 42.14513154 34.05442433 39.5 33.0625 C36.63582639 31.84522622 35.64161687 30.59202663 34 28 C33.20643199 29.74671588 33.20643199 29.74671588 33 32 C33.98189187 33.67739862 34.98133771 35.34467377 36 37 C35.67 37.99 35.34 38.98 35 40 C33.02 39.67 31.04 39.34 29 39 C29.66 41.31 30.32 43.62 31 46 C26.1452735 45.58388059 24.19560921 43.54108048 21 40 C20.34 39.34 19.68 38.68 19 38 C18.41063469 36.04014884 17.8990982 34.05631422 17.4375 32.0625 C16.71530457 28.98287908 16.0005651 26.0016953 15 23 C14.401875 23.226875 13.80375 23.45375 13.1875 23.6875 C12.465625 23.790625 11.74375 23.89375 11 24 C8.16672246 21.76954747 6.85410961 19.0207146 5.3125 15.8125 C4.87550781 14.91144531 4.43851563 14.01039063 3.98828125 13.08203125 C3.49908203 12.05142578 3.49908203 12.05142578 3 11 C2.34 11.99 1.68 12.98 1 14 C1.66 14.33 2.32 14.66 3 15 C2.34 18.3 1.68 21.6 1 25 C1.99 25.33 2.98 25.66 4 26 C3.31063929 29.91121498 2.21749819 33.55508596 0.9375 37.3125 C0.57527344 38.38113281 0.21304688 39.44976562 -0.16015625 40.55078125 C-0.43730469 41.35902344 -0.71445313 42.16726562 -1 43 C-2.921875 42.66015625 -2.921875 42.66015625 -5 42 C-6.25 39.4375 -6.25 39.4375 -7 37 C-7.886875 37.495 -8.77375 37.99 -9.6875 38.5 C-12.87586238 39.94378674 -14.58187546 40.30159922 -18 40 C-18.33 39.34 -18.66 38.68 -19 38 C-19.87011719 38.83144531 -19.87011719 38.83144531 -20.7578125 39.6796875 C-28.51669596 46.87521968 -28.51669596 46.87521968 -34 48 C-34.66 46.68 -35.32 45.36 -36 44 C-38.97 44.495 -38.97 44.495 -42 45 C-42 44.34 -42 43.68 -42 43 C-42.83144531 43.54140625 -42.83144531 43.54140625 -43.6796875 44.09375 C-44.40414062 44.5578125 -45.12859375 45.021875 -45.875 45.5 C-46.59429687 45.9640625 -47.31359375 46.428125 -48.0546875 46.90625 C-50 48 -50 48 -52 48 C-52.33 49.32 -52.66 50.64 -53 52 C-53.33 46.72 -53.66 41.44 -54 36 C-53.34 36 -52.68 36 -52 36 C-51.67 35.01 -51.34 34.02 -51 33 C-51 34.65 -51 36.3 -51 38 C-50.22076172 37.16855469 -50.22076172 37.16855469 -49.42578125 36.3203125 C-48.72839844 35.59585938 -48.03101563 34.87140625 -47.3125 34.125 C-46.62800781 33.40570313 -45.94351563 32.68640625 -45.23828125 31.9453125 C-43 30 -43 30 -40.39453125 28.99609375 C-37.47788215 27.78280579 -36.84007374 26.68326745 -35.375 23.9375 C-33.30859662 20.10286554 -33.30859662 20.10286554 -30 19 C-29.01 19.66 -28.02 20.32 -27 21 C-27 21.66 -27 22.32 -27 23 C-26.34 23 -25.68 23 -25 23 C-25 23.66 -25 24.32 -25 25 C-21.9190604 24.67928786 -20.40294119 24.42157944 -18.2265625 22.14453125 C-17.69804687 21.37496094 -17.16953125 20.60539062 -16.625 19.8125 C-14.42481072 16.78187052 -12.38516767 14.30998239 -9.4375 12 C-5.30308674 8.68872784 -2.72418333 4.49041209 0 0 Z M-29 29 C-31.35448165 31.55068845 -31.98327924 32.71017358 -32.1875 36.25 C-32.0946875 37.61125 -32.0946875 37.61125 -32 39 C-28.95474193 39.34706779 -28.95474193 39.34706779 -27.25 37.3125 C-25.75599789 35.04206418 -25.75599789 35.04206418 -26.1875 32.3125 C-26.75815152 29.83108618 -26.75815152 29.83108618 -29 29 Z " fill="#B89547" transform="translate(210,199)"/>
<path d="M0 0 C5.57845971 4.55084871 8.38078381 10.90894388 9.375 17.9375 C9.95734936 25.0421622 9.20079943 32.9844691 4.9453125 38.9375 C1.3481757 42.65991023 -1.25450665 43.82329222 -6.375 44.25 C-10.83624549 44.15995651 -14.23952435 42.85231196 -17.625 39.9375 C-22.42397302 34.54182928 -24.41607341 28.08848745 -24.625 20.9375 C-23.57112168 12.8942211 -21.17356968 5.17635575 -14.625 -0.0625 C-9.58004392 -2.86525338 -5.22492215 -2.11484944 0 0 Z " fill="#1F6352" transform="translate(227.625,110.0625)"/>
<path d="M0 0 C5.33259892 3.05221123 7.47748201 8.43110584 9.30859375 14.0546875 C10.72385881 20.08355676 10.84055561 25.56681271 8.8125 31.4375 C6.30597386 34.98120937 4.32750223 37.44371362 -0.04296875 38.48828125 C-4.68340315 38.89561714 -7.62523869 38.04925505 -11.3125 35.1875 C-16.54988317 30.02329384 -19.03409599 23.16930971 -19.5 15.875 C-18.72650095 9.88038233 -16.75760717 3.99063775 -12 0 C-7.77673527 -1.40775491 -4.28580613 -1.15217733 0 0 Z " fill="#236656" transform="translate(190,125)"/>
<path d="M0 0 C5.50704538 2.0147727 8.42654936 6.96936907 11 12 C12.8941887 17.65673624 13.70638171 23.19830219 12 29 C9.73796893 31.89037303 8.00968296 33.57487033 4.625 35 C0.05690301 35 -3.3148204 33.48877172 -6.67578125 30.51953125 C-11.3518147 25.44899373 -13.65530307 20.27462087 -14.375 13.4375 C-13.8455808 8.58449064 -12.55546183 4.72211845 -9.25 1.0625 C-5.98872559 -0.47754625 -3.56385197 -0.37514231 0 0 Z " fill="#1E6353" transform="translate(160,146)"/>
<path d="M0 0 C0.99 0 1.98 0 3 0 C12.81533459 11.83074996 13.58320003 25.4199992 13 40 C15.07134673 32.16097081 13.94844304 23.96014696 13 16 C14.65 15.67 16.3 15.34 18 15 C18.33 14.01 18.66 13.02 19 12 C19.99 13.32 20.98 14.64 22 16 C22.33 12.7 22.66 9.4 23 6 C23.33 6 23.66 6 24 6 C24.30111823 16.13764691 24.53772028 25.35643658 21 35 C20.52273936 36.39559478 20.04623877 37.79144961 19.5703125 39.1875 C19.04978688 40.66769388 18.52634714 42.1468662 18 43.625 C17.7510498 44.33736816 17.50209961 45.04973633 17.24560547 45.78369141 C16.58588652 47.5580632 15.80122707 49.28487331 15 51 C13.515 51.495 13.515 51.495 12 52 C11.67 51.34 11.34 50.68 11 50 C9.02 54.95 9.02 54.95 7 60 C6.34 59.67 5.68 59.34 5 59 C5.185625 58.4225 5.37125 57.845 5.5625 57.25 C6.05713774 54.70614875 5.63939384 53.48653161 5 51 C4.96111651 48.66699067 4.9551365 46.33290199 5 44 C3.35 43.67 1.7 43.34 0 43 C-1.08552649 39.05263095 -1.11094885 37.27203235 0.4609375 33.41796875 C2.39198755 28.52987527 2.40946698 24.01380885 2.3125 18.8125 C2.31572266 17.93658203 2.31894531 17.06066406 2.32226562 16.15820312 C2.28417935 11.59131216 1.92825439 8.20221177 0 4 C0 2.68 0 1.36 0 0 Z " fill="#276657" transform="translate(260,194)"/>
<path d="M0 0 C1.04449911 3.13349732 0.93423645 3.98968256 0 7 C0.99 7.33 1.98 7.66 3 8 C2.31063929 11.91121498 1.21749819 15.55508596 -0.0625 19.3125 C-0.60583984 20.91544922 -0.60583984 20.91544922 -1.16015625 22.55078125 C-1.43730469 23.35902344 -1.71445313 24.16726562 -2 25 C-3.921875 24.66015625 -3.921875 24.66015625 -6 24 C-7.25 21.4375 -7.25 21.4375 -8 19 C-9.3303125 19.7425 -9.3303125 19.7425 -10.6875 20.5 C-13.87586238 21.94378674 -15.58187546 22.30159922 -19 22 C-19.495 21.01 -19.495 21.01 -20 20 C-20.58007812 20.55429688 -21.16015625 21.10859375 -21.7578125 21.6796875 C-29.51669596 28.87521968 -29.51669596 28.87521968 -35 30 C-35.66 28.68 -36.32 27.36 -37 26 C-38.98 26.33 -40.96 26.66 -43 27 C-43 26.34 -43 25.68 -43 25 C-43.55429688 25.3609375 -44.10859375 25.721875 -44.6796875 26.09375 C-45.40414062 26.5578125 -46.12859375 27.021875 -46.875 27.5 C-47.59429687 27.9640625 -48.31359375 28.428125 -49.0546875 28.90625 C-51 30 -51 30 -53 30 C-53.33 31.32 -53.66 32.64 -54 34 C-54.33 28.72 -54.66 23.44 -55 18 C-54.34 18 -53.68 18 -53 18 C-52.67 17.01 -52.34 16.02 -52 15 C-52 16.65 -52 18.3 -52 20 C-51.48050781 19.44570312 -50.96101562 18.89140625 -50.42578125 18.3203125 C-49.72839844 17.59585938 -49.03101563 16.87140625 -48.3125 16.125 C-47.62800781 15.40570313 -46.94351563 14.68640625 -46.23828125 13.9453125 C-44 12 -44 12 -41.39453125 10.99609375 C-38.47788215 9.78280579 -37.84007374 8.68326745 -36.375 5.9375 C-34.30859662 2.10286554 -34.30859662 2.10286554 -31 1 C-30.01 1.66 -29.02 2.32 -28 3 C-28 3.66 -28 4.32 -28 5 C-27.34 5 -26.68 5 -26 5 C-26 5.66 -26 6.32 -26 7 C-24.35 7 -22.7 7 -21 7 C-21 7.66 -21 8.32 -21 9 C-21.66 9 -22.32 9 -23 9 C-22.7525 9.7425 -22.505 10.485 -22.25 11.25 C-22.1675 12.1575 -22.085 13.065 -22 14 C-23.875 16.1875 -23.875 16.1875 -26 18 C-26.33 18.66 -26.66 19.32 -27 20 C-24.48696195 19.56671758 -23.28483439 19.3219867 -21.5625 17.375 C-20.7890625 16.694375 -20.7890625 16.694375 -20 16 C-17.3125 16.3125 -17.3125 16.3125 -15 17 C-15 17.66 -15 18.32 -15 19 C-12.69 18.67 -10.38 18.34 -8 18 C-7.505 16.515 -7.505 16.515 -7 15 C-4.4375 13.8125 -4.4375 13.8125 -2 13 C-2.02320313 12.39671875 -2.04640625 11.7934375 -2.0703125 11.171875 C-2.08835938 10.37265625 -2.10640625 9.5734375 -2.125 8.75 C-2.14820313 7.96109375 -2.17140625 7.1721875 -2.1953125 6.359375 C-1.9828378 3.79268059 -1.28654105 2.2083933 0 0 Z M-30 11 C-32.35448165 13.55068845 -32.98327924 14.71017358 -33.1875 18.25 C-33.0946875 19.61125 -33.0946875 19.61125 -33 21 C-29.95474193 21.34706779 -29.95474193 21.34706779 -28.25 19.3125 C-26.75599789 17.04206418 -26.75599789 17.04206418 -27.1875 14.3125 C-27.75815152 11.83108618 -27.75815152 11.83108618 -30 11 Z " fill="#C0A25F" transform="translate(211,217)"/>
<path d="M0 0 C0.66 0 1.32 0 2 0 C1.97679687 1.16015625 1.95359375 2.3203125 1.9296875 3.515625 C1.67160045 21.87723807 5.08137149 36.41843324 13 53 C13.79927928 54.72566107 14.59203012 56.45437806 15.375 58.1875 C15.85066406 59.22970703 15.85066406 59.22970703 16.3359375 60.29296875 C17 62 17 62 17 64 C16.34 64 15.68 64 15 64 C14.67 64.99 14.34 65.98 14 67 C13.195625 67.12375 12.39125 67.2475 11.5625 67.375 C10.2940625 67.684375 10.2940625 67.684375 9 68 C8.505 68.99 8.505 68.99 8 70 C8.66 70.33 9.32 70.66 10 71 C10.75 72.875 10.75 72.875 11 75 C10.34 75.99 9.68 76.98 9 78 C8.72027344 77.13761719 8.44054687 76.27523437 8.15234375 75.38671875 C5.99606795 68.82082428 3.76152661 62.31509207 1.29541016 55.85839844 C-4.79867292 39.82950513 -10.15496092 21.33025253 -2.9765625 4.6171875 C-1.875 2.6875 -1.875 2.6875 0 0 Z " fill="#347365" transform="translate(250,287)"/>
<path d="M0 0 C5.99262858 3.63969466 8.78177962 8.18422257 10.5 14.9765625 C11.46525222 20.18490263 10.72863315 23.45227809 8 28 C3.98147504 30.67901664 0.58843942 29.899694 -4 29 C-4 28.34 -4 27.68 -4 27 C-4.66 27 -5.32 27 -6 27 C-6 26.34 -6 25.68 -6 25 C-6.66 25 -7.32 25 -8 25 C-11.89339601 18.46465669 -14.51643842 12.70514656 -13 5 C-9.36350235 -0.93961283 -6.68437172 -1.64369796 0 0 Z " fill="#246857" transform="translate(142,173)"/>
<path d="M0 0 C0.8971875 0.309375 0.8971875 0.309375 1.8125 0.625 C2.1425 1.945 2.4725 3.265 2.8125 4.625 C1.8225 5.12 1.8225 5.12 0.8125 5.625 C0.1525 5.295 -0.5075 4.965 -1.1875 4.625 C-1.1875 6.935 -1.1875 9.245 -1.1875 11.625 C-0.5275 11.955 0.1325 12.285 0.8125 12.625 C0.8125 13.615 0.8125 14.605 0.8125 15.625 C0.1525 15.625 -0.5075 15.625 -1.1875 15.625 C-1.35668268 17.20806647 -1.52273936 18.79146719 -1.6875 20.375 C-1.82671875 21.69757813 -1.82671875 21.69757813 -1.96875 23.046875 C-2.24386313 25.85804835 -2.24386313 25.85804835 -2.1875 29.625 C-3.156875 29.91375 -4.12625 30.2025 -5.125 30.5 C-8.29414203 31.26714682 -8.29414203 31.26714682 -9.1875 33.625 C-11.50906597 34.03229228 -13.8443787 34.36938677 -16.1875 34.625 C-16.1875 33.965 -16.1875 33.305 -16.1875 32.625 C-18.47586222 32.20513054 -18.47586222 32.20513054 -21.1875 32.625 C-24.00081378 35.02083651 -24.00081378 35.02083651 -26.1875 37.625 C-26.1875 36.965 -26.1875 36.305 -26.1875 35.625 C-26.8475 35.625 -27.5075 35.625 -28.1875 35.625 C-27.89875 34.92375 -27.61 34.2225 -27.3125 33.5 C-26.16616412 30.57047497 -25.16124346 27.61578347 -24.1875 24.625 C-23.5275 24.625 -22.8675 24.625 -22.1875 24.625 C-22.07664063 24.04492188 -21.96578125 23.46484375 -21.8515625 22.8671875 C-19.98696329 16.57142311 -14.67393257 11.99757308 -9.72265625 8.00390625 C-7.67573012 6.16531866 -6.51471961 4.01399529 -5.1875 1.625 C-2.1875 -0.375 -2.1875 -0.375 0 0 Z " fill="#B89648" transform="translate(212.1875,201.375)"/>
<path d="M0 0 C1.953125 0.69140625 1.953125 0.69140625 4 2 C4.609375 4.27734375 4.609375 4.27734375 4.75 6.9375 C4.80671875 7.81277344 4.8634375 8.68804687 4.921875 9.58984375 C5.17558771 17.41688087 4.81622832 22.78551184 0 29 C-0.33 28.34 -0.66 27.68 -1 27 C-1.99 27.33 -2.98 27.66 -4 28 C-5.20442708 26.4375 -6.40885417 24.875 -7.61328125 23.3125 C-9.04491137 21.65629795 -9.04491137 21.65629795 -12 22 C-12.66 21.67 -13.32 21.34 -14 21 C-12.68 18.69 -11.36 16.38 -10 14 C-9.01 14 -8.02 14 -7 14 C-6.67 12.68 -6.34 11.36 -6 10 C-5.34 10 -4.68 10 -4 10 C-3.896875 8.72125 -3.79375 7.4425 -3.6875 6.125 C-3.51171875 3.9453125 -3.51171875 3.9453125 -3 2 C-2.01 1.34 -1.02 0.68 0 0 Z " fill="#1F6553" transform="translate(261,236)"/>
<path d="M0 0 C0.33 0 0.66 0 1 0 C1.30111823 10.13764691 1.53772028 19.35643658 -2 29 C-2.47726064 30.39559478 -2.95376123 31.79144961 -3.4296875 33.1875 C-3.95021312 34.66769388 -4.47365286 36.1468662 -5 37.625 C-5.2489502 38.33736816 -5.49790039 39.04973633 -5.75439453 39.78369141 C-6.41411348 41.5580632 -7.19877293 43.28487331 -8 45 C-9.485 45.495 -9.485 45.495 -11 46 C-11.33 45.34 -11.66 44.68 -12 44 C-12.99 46.475 -12.99 46.475 -14 49 C-14.33 49 -14.66 49 -15 49 C-15 46.69 -15 44.38 -15 42 C-13.515 41.505 -13.515 41.505 -12 41 C-7.17078221 31.6098543 -8.79707758 20.09595602 -10 10 C-8.35 9.67 -6.7 9.34 -5 9 C-4.67 8.01 -4.34 7.02 -4 6 C-3.01 7.32 -2.02 8.64 -1 10 C-0.67 6.7 -0.34 3.4 0 0 Z " fill="#3A776C" transform="translate(283,200)"/>
<path d="M0 0 C1.32 0.33 2.64 0.66 4 1 C4.33 3.31 4.66 5.62 5 8 C5.66 8 6.32 8 7 8 C7.33 7.34 7.66 6.68 8 6 C8.66 6 9.32 6 10 6 C10.12375 5.360625 10.2475 4.72125 10.375 4.0625 C10.58125 3.381875 10.7875 2.70125 11 2 C11.66 1.67 12.32 1.34 13 1 C13.22042969 2.54107422 13.22042969 2.54107422 13.4453125 4.11328125 C14.99566611 14.00396307 17.42193345 22.10785879 23.6875 30.171875 C25 32 25 32 25 34 C16.88123647 32.27035038 12.41176759 26.57763835 7.86328125 20.05078125 C4.05517336 13.81570313 1.24589419 7.21307163 0 0 Z " fill="#165B4A" transform="translate(185,384)"/>
<path d="M0 0 C2.40264679 3.7713677 2.52244536 7.71749443 2.75 12.0625 C2.79165283 12.81821289 2.83330566 13.57392578 2.8762207 14.35253906 C3.21555992 22.41764424 2.13440558 29.54090823 -1 37 C-1.99 37 -2.98 37 -4 37 C-3.96519531 36.2471875 -3.93039063 35.494375 -3.89453125 34.71875 C-3.59721227 23.05251945 -5.68317841 12.1618257 -9 1 C-6.69 1.66 -4.38 2.32 -2 3 C-1.34 2.01 -0.68 1.02 0 0 Z " fill="#1E6553" transform="translate(179,316)"/>
<path d="M0 0 C0.391875 0.474375 0.78375 0.94875 1.1875 1.4375 C3.25258256 3.47667355 3.25258256 3.47667355 8 4 C8 7.63 8 11.26 8 15 C6.68 15.33 5.36 15.66 4 16 C3.67 17.32 3.34 18.64 3 20 C3 19.34 3 18.68 3 18 C2.13375 18.2475 2.13375 18.2475 1.25 18.5 C-2.16429157 19.25873146 -4.69431461 19.10189513 -8 18 C-8 17.34 -8 16.68 -8 16 C-8.66 16 -9.32 16 -10 16 C-9.34 13.69 -8.68 11.38 -8 9 C-7.34 9 -6.68 9 -6 9 C-5.7525 8.443125 -5.505 7.88625 -5.25 7.3125 C-3.78393985 4.60028873 -1.97010529 2.36412635 0 0 Z " fill="#1B6451" transform="translate(226,284)"/>
<path d="M0 0 C1.65 0 3.3 0 5 0 C5.33 0.99 5.66 1.98 6 3 C5.01 3 4.02 3 3 3 C2.34 4.98 1.68 6.96 1 9 C0.34 9 -0.32 9 -1 9 C-0.67 11.97 -0.34 14.94 0 18 C1.98 18 3.96 18 6 18 C5.67 18.66 5.34 19.32 5 20 C3.35 19.67 1.7 19.34 0 19 C-0.33 19.66 -0.66 20.32 -1 21 C-1 20.34 -1 19.68 -1 19 C-2.97909398 18.97313447 -4.95828971 18.95366625 -6.9375 18.9375 C-8.03964844 18.92589844 -9.14179688 18.91429687 -10.27734375 18.90234375 C-12.91447634 18.68737429 -12.91447634 18.68737429 -14 20 C-14.66 20 -15.32 20 -16 20 C-15.05150753 15.25753764 -13.44621549 10.44621549 -10 7 C-7.67724823 6.59952556 -5.34260643 6.2602896 -3 6 C-2.67 5.01 -2.34 4.02 -2 3 C-1.34 3 -0.68 3 0 3 C0 2.01 0 1.02 0 0 Z " fill="#B99849" transform="translate(177,222)"/>
<path d="M0 0 C2.3203125 0.20703125 2.3203125 0.20703125 5 1 C6.5546875 3.07421875 6.5546875 3.07421875 7.875 5.6875 C10.27997858 10.06531257 12.6890829 12.87239073 16.6796875 15.84375 C17.11539063 16.2253125 17.55109375 16.606875 18 17 C18 17.66 18 18.32 18 19 C18.66 19 19.32 19 20 19 C20.33 19.99 20.66 20.98 21 22 C19.02 22.99 17.04 23.98 15 25 C15 24.34 15 23.68 15 23 C14.1028125 23.3403125 14.1028125 23.3403125 13.1875 23.6875 C12.465625 23.790625 11.74375 23.89375 11 24 C8.16672246 21.76954747 6.85410961 19.0207146 5.3125 15.8125 C4.87550781 14.91144531 4.43851563 14.01039063 3.98828125 13.08203125 C3.66214844 12.39496094 3.33601562 11.70789063 3 11 C2.34 11 1.68 11 1 11 C1 9.68 1 8.36 1 7 C1.99 7 2.98 7 4 7 C3.67 5.68 3.34 4.36 3 3 C1.35 3.33 -0.3 3.66 -2 4 C-1.34 2.68 -0.68 1.36 0 0 Z " fill="#BA9E56" transform="translate(210,199)"/>
<path d="M0 0 C0.99 0 1.98 0 3 0 C4.82500908 3.8781443 5 6.76081792 5 11 C5.99 12.485 5.99 12.485 7 14 C6.34 14 5.68 14 5 14 C4.67 14.66 4.34 15.32 4 16 C3.34 15.67 2.68 15.34 2 15 C1.67 15.66 1.34 16.32 1 17 C0.01 16.34 -0.98 15.68 -2 15 C-2.99 15.495 -2.99 15.495 -4 16 C-4.33872513 14.58461283 -4.67074624 13.16762037 -5 11.75 C-5.185625 10.96109375 -5.37125 10.1721875 -5.5625 9.359375 C-6 7 -6 7 -6 3 C-5.195625 2.87625 -4.39125 2.7525 -3.5625 2.625 C-2.716875 2.41875 -1.87125 2.2125 -1 2 C-0.67 1.34 -0.34 0.68 0 0 Z " fill="#1C5E4E" transform="translate(265,351)"/>
<path d="M0 0 C0.33 1.32 0.66 2.64 1 4 C2.32 3.01 3.64 2.02 5 1 C6 4 6 4 5 7 C5.33 7.66 5.66 8.32 6 9 C12.6 9 19.2 9 26 9 C24 13 24 13 20.875 14.25 C19.92625 14.4975 18.9775 14.745 18 15 C17.34 13.68 16.68 12.36 16 11 C14.02 11.33 12.04 11.66 10 12 C10 11.34 10 10.68 10 10 C9.44570312 10.3609375 8.89140625 10.721875 8.3203125 11.09375 C7.59585938 11.5578125 6.87140625 12.021875 6.125 12.5 C5.40570313 12.9640625 4.68640625 13.428125 3.9453125 13.90625 C2 15 2 15 0 15 C-0.33 16.32 -0.66 17.64 -1 19 C-1.33 13.72 -1.66 8.44 -2 3 C-1.34 3 -0.68 3 0 3 C0 2.01 0 1.02 0 0 Z " fill="#B1A972" transform="translate(158,232)"/>
<path d="M0 0 C0.66 0 1.32 0 2 0 C2 8.91 2 17.82 2 27 C0 24 0 24 0 21 C-0.99 21.33 -1.98 21.66 -3 22 C-3.80212628 23.87387216 -3.80212628 23.87387216 -4.1875 26.0625 C-4.34605469 26.79597656 -4.50460938 27.52945312 -4.66796875 28.28515625 C-4.83232422 29.13400391 -4.83232422 29.13400391 -5 30 C-5.33 30 -5.66 30 -6 30 C-6.42505051 19.53903472 -6.1479229 8.81202283 0 0 Z " fill="#336C5D" transform="translate(250,287)"/>
<path d="M0 0 C0.66 0.66 1.32 1.32 2 2 C2.7425 2.2475 3.485 2.495 4.25 2.75 C7.98069873 4.44577215 10.54390789 6.72521052 13 10 C14.09703627 14.510038 11.87288985 19.84184089 10 24 C9.34 24.33 8.68 24.66 8 25 C7.67 25.99 7.34 26.98 7 28 C6.34 28 5.68 28 5 28 C5.94727464 25.56415094 6.85103113 23.25089494 8.1875 21 C9.29600746 18.27136626 8.92177965 16.76533896 8 14 C6.32171194 11.73431112 5.180323 11.06311305 2.5 10.125 C-0.66422269 8.70109979 -1.47679851 7.04640297 -3 4 C-2.01 4 -1.02 4 0 4 C0 2.68 0 1.36 0 0 Z " fill="#C2AC7B" transform="translate(247,222)"/>
<path d="M0 0 C0.66 0 1.32 0 2 0 C2 0.99 2 1.98 2 3 C2.99 3.33 3.98 3.66 5 4 C5 5.32 5 6.64 5 8 C6.83284443 9.12516085 6.83284443 9.12516085 9 10 C9.99 9.67 10.98 9.34 12 9 C13 12 13 12 13 14 C13.64533078 16.33932406 14.31060191 18.67328146 15 21 C10.1452735 20.58388059 8.19560921 18.54108048 5 15 C4.34 14.34 3.68 13.68 3 13 C2.38649958 10.8105352 1.85440188 8.59768143 1.375 6.375 C0.98441406 4.59222656 0.98441406 4.59222656 0.5859375 2.7734375 C0.39257812 1.85820312 0.19921875 0.94296875 0 0 Z " fill="#B4934C" transform="translate(226,224)"/>
<path d="M0 0 C0.73089844 0.433125 0.73089844 0.433125 1.4765625 0.875 C0.4865625 1.535 -0.5034375 2.195 -1.5234375 2.875 C-5.2109375 2 -5.2109375 2 -8.5234375 0.875 C-7.5334375 1.535 -6.5434375 2.195 -5.5234375 2.875 C-5.5234375 3.535 -5.5234375 4.195 -5.5234375 4.875 C-7.10125 4.38 -7.10125 4.38 -8.7109375 3.875 C-11.91217107 3.03533218 -14.2645383 2.67749096 -17.5234375 2.875 C-17.5234375 1.225 -17.5234375 -0.425 -17.5234375 -2.125 C-18.2659375 -1.815625 -19.0084375 -1.50625 -19.7734375 -1.1875 C-22.04642493 -0.30930031 -24.1266892 0.46176753 -26.5234375 0.875 C-27.1834375 0.545 -27.8434375 0.215 -28.5234375 -0.125 C-19.67824484 -5.1793958 -8.90508754 -4.66302766 0 0 Z " fill="#528279" transform="translate(214.5234375,258.125)"/>
<path d="M0 0 C0.33 0 0.66 0 1 0 C1.33 3.3 1.66 6.6 2 10 C3.32 9.01 4.64 8.02 6 7 C4.34464282 13.82207807 2.37399268 19.83373752 -1 26 C-1.66 26 -2.32 26 -3 26 C-3.33 25.34 -3.66 24.68 -4 24 C-4.99 26.475 -4.99 26.475 -6 29 C-6.33 29 -6.66 29 -7 29 C-7 26.69 -7 24.38 -7 22 C-6.01 21.67 -5.02 21.34 -4 21 C-1.71892848 16.82866992 -1.38180815 12.33601083 -0.875 7.6875 C-0.78863281 6.94693359 -0.70226562 6.20636719 -0.61328125 5.44335938 C-0.40265295 3.62961565 -0.20047014 1.81489457 0 0 Z " fill="#59857D" transform="translate(275,220)"/>
<path d="M0 0 C0.99 0 1.98 0 3 0 C4.53515625 2.01171875 4.53515625 2.01171875 6.0625 4.6875 C6.56910156 5.55761719 7.07570313 6.42773438 7.59765625 7.32421875 C11.14661071 14.09590065 11.14661071 14.09590065 10.625 17.3125 C10.315625 18.1478125 10.315625 18.1478125 10 19 C10 18.01 10 17.02 10 16 C8.02 16 6.04 16 4 16 C4 18.97 4 21.94 4 25 C3.67 25 3.34 25 3 25 C2.92652344 23.35451172 2.92652344 23.35451172 2.8515625 21.67578125 C2.77649409 20.22133075 2.70094803 18.76690484 2.625 17.3125 C2.5940625 16.59126953 2.563125 15.87003906 2.53125 15.12695312 C2.30366621 10.97354899 1.66113118 7.85571505 0 4 C0 2.68 0 1.36 0 0 Z " fill="#2D6B5B" transform="translate(260,194)"/>
<path d="M0 0 C0.33 1.32 0.66 2.64 1 4 C1.66 4 2.32 4 3 4 C4.25664978 6.90600261 5 8.79604584 5 12 C3.02 12.99 3.02 12.99 1 14 C1 14.99 1 15.98 1 17 C0.34 17 -0.32 17 -1 17 C-1.66 15.35 -2.32 13.7 -3 12 C-3.33 12 -3.66 12 -4 12 C-5.35384615 5.6 -5.35384615 5.6 -3.5625 2.5625 C-3.046875 2.046875 -2.53125 1.53125 -2 1 C-1.34 1.33 -0.68 1.66 0 2 C0 1.34 0 0.68 0 0 Z " fill="#1B6554" transform="translate(254,326)"/>
<path d="M0 0 C6.50333289 0.89261432 12.5439007 2.09960527 18.8125 4.0625 C20.55466797 4.60583984 20.55466797 4.60583984 22.33203125 5.16015625 C23.65267578 5.57587891 23.65267578 5.57587891 25 6 C21.01647791 8.30903272 18.49885947 7.86516528 14 7 C14 7.99 14 8.98 14 10 C12.53633658 9.60246179 11.0791065 9.18118616 9.625 8.75 C8.81289062 8.51796875 8.00078125 8.2859375 7.1640625 8.046875 C4.50628266 6.76116201 4.0882208 5.67869737 3 3 C1.4587688 1.29078411 1.4587688 1.29078411 0 0 Z " fill="#427A6D" transform="translate(205,258)"/>
<path d="M0 0 C1.32 0.33 2.64 0.66 4 1 C4.33 3.31 4.66 5.62 5 8 C5.99 8.33 6.98 8.66 8 9 C7.67 11.31 7.34 13.62 7 16 C7.66 16.33 8.32 16.66 9 17 C8.34 17.66 7.68 18.32 7 19 C3.98421843 12.73822453 1.41504672 6.81795238 0 0 Z M12 1 C12.33 1 12.66 1 13 1 C13.36463732 2.74784829 13.7163078 4.49840502 14.0625 6.25 C14.25972656 7.22453125 14.45695313 8.1990625 14.66015625 9.203125 C14.98397535 11.868119 14.85503199 13.48871723 14 16 C13.7525 15.21625 13.505 14.4325 13.25 13.625 C11.84610901 10.67682892 10.99324263 10.0975223 8 9 C8 8.01 8 7.02 8 6 C8.66 6 9.32 6 10 6 C10.2165625 5.0409375 10.2165625 5.0409375 10.4375 4.0625 C11 2 11 2 12 1 Z " fill="#427A6C" transform="translate(185,384)"/>
<path d="M0 0 C-2.89477547 4.52351439 -6.06619337 8.61555314 -9.5625 12.6875 C-10.04396484 13.25533203 -10.52542969 13.82316406 -11.02148438 14.40820312 C-13.25964471 17.0342702 -15.50052968 19.61834983 -18 22 C-18 20.35 -18 18.7 -18 17 C-16.68 16.67 -15.36 16.34 -14 16 C-14.2475 15.278125 -14.495 14.55625 -14.75 13.8125 C-15 11 -15 11 -13.4375 8.25 C-10.57935599 5.61171322 -8.82278276 5.26064428 -5 5 C-5 4.34 -5 3.68 -5 3 C-5.66 3 -6.32 3 -7 3 C-7 2.34 -7 1.68 -7 1 C-4.53721199 -0.231394 -2.7204945 -0.07159196 0 0 Z " fill="#236554" transform="translate(248,283)"/>
<path d="M0 0 C0.66 0 1.32 0 2 0 C2 4.29 2 8.58 2 13 C-1.63 13.66 -5.26 14.32 -9 15 C-10.03348696 11.89953913 -10.17755913 10.94389782 -9 8 C-6 7 -3 6 0 5 C0 3.35 0 1.7 0 0 Z M-8 9 C-7 11 -7 11 -7 11 Z " fill="#195D49" transform="translate(155,238)"/>
<path d="M0 0 C0.33 0 0.66 0 1 0 C1.13277344 0.81984375 1.26554688 1.6396875 1.40234375 2.484375 C1.57894531 3.56203125 1.75554687 4.6396875 1.9375 5.75 C2.11152344 6.81734375 2.28554687 7.8846875 2.46484375 8.984375 C2.88704171 11.36347593 3.37202884 13.66915211 4 16 C3.01 16.33 2.02 16.66 1 17 C0.34 15.68 -0.32 14.36 -1 13 C-1.66 13 -2.32 13 -3 13 C-2.67 16.63 -2.34 20.26 -2 24 C-2.66 24 -3.32 24 -4 24 C-4.81434143 21.14839609 -5.11881242 18.63373869 -5.09765625 15.671875 C-5.09282227 14.47304688 -5.09282227 14.47304688 -5.08789062 13.25 C-5.07951172 12.425 -5.07113281 11.6 -5.0625 10.75 C-5.05798828 9.90953125 -5.05347656 9.0690625 -5.04882812 8.203125 C-5.03707961 6.13538599 -5.01914522 4.06768376 -5 2 C-4.67 2 -4.34 2 -4 2 C-3.67 3.65 -3.34 5.3 -3 7 C-2.01 7 -1.02 7 0 7 C0 4.69 0 2.38 0 0 Z " fill="#639A8B" transform="translate(204,371)"/>
<path d="M0 0 C0.36923077 5.41538462 0.36923077 5.41538462 -1.5 8.375 C-1.995 8.91125 -2.49 9.4475 -3 10 C-3.33 9.34 -3.66 8.68 -4 8 C-7.28976808 6.90341064 -8.71303767 7.20046862 -12 8 C-12 7.34 -12 6.68 -12 6 C-13.98 6 -15.96 6 -18 6 C-15.4053353 3.51344633 -13.42397355 2.78422113 -9.9375 2.4375 C-5.8920344 1.98800382 -3.93724287 0 0 0 Z " fill="#2A7260" transform="translate(197,256)"/>
<path d="M0 0 C1.89474856 2.84212283 3.76920438 5.69479936 5.625 8.5625 C6.57246094 10.01849609 6.57246094 10.01849609 7.5390625 11.50390625 C9 14 9 14 9 16 C3.25885288 14.82910815 -1.19856706 11.55166264 -4.4375 6.6875 C-4.953125 5.800625 -5.46875 4.91375 -6 4 C-4.35 4 -2.7 4 -1 4 C-0.67 2.68 -0.34 1.36 0 0 Z " fill="#29645B" transform="translate(201,402)"/>
<path d="M0 0 C5.48269347 6.03096282 6.26606806 11.96715434 6.125 19.9375 C6.11146484 20.96327148 6.11146484 20.96327148 6.09765625 22.00976562 C6.07438958 23.67333287 6.03853167 25.33671631 6 27 C3.65229357 23.47844036 3.62330386 21.49228157 3.375 17.3125 C3.30023438 16.13300781 3.22546875 14.95351562 3.1484375 13.73828125 C3.07496094 12.38283203 3.07496094 12.38283203 3 11 C2.01 10.67 1.02 10.34 0 10 C-0.6875 7.9375 -0.6875 7.9375 -1 6 C-1.66 6 -2.32 6 -3 6 C-2.67 4.68 -2.34 3.36 -2 2 C-1.34 2 -0.68 2 0 2 C0 1.34 0 0.68 0 0 Z " fill="#44756B" transform="translate(283,107)"/>
<path d="M0 0 C0.66 0.33 1.32 0.66 2 1 C1.7525 1.9075 1.505 2.815 1.25 3.75 C0.61740673 7.08837848 0.61740673 7.08837848 2.9375 9.375 C3.618125 9.91125 4.29875 10.4475 5 11 C3.85597407 15.95744572 2.7279444 18.57514051 -1 22 C-1.22262638 19.27132267 -1.42852324 16.54308042 -1.625 13.8125 C-1.68945312 13.04357422 -1.75390625 12.27464844 -1.8203125 11.48242188 C-2.11996357 7.11875319 -2.09450183 3.98914662 0 0 Z " fill="#1B5C4F" transform="translate(277,210)"/>
<path d="M0 0 C4.18935171 1.80903824 5.93445094 3.97761499 8 8 C7.34 8 6.68 8 6 8 C5.34 7.34 4.68 6.68 4 6 C3.01 6 2.02 6 1 6 C0.67 4.68 0.34 3.36 0 2 C-2.97 2.66 -5.94 3.32 -9 4 C-10.32 8.29 -11.64 12.58 -13 17 C-13.33 17 -13.66 17 -14 17 C-14.33506294 11.52730529 -13.6071996 7.84194211 -11 3 C-7.75109989 -0.59699655 -4.67894377 -0.4925204 0 0 Z " fill="#50796D" transform="translate(160,146)"/>
<path d="M0 0 C2.25 0.0625 2.25 0.0625 5 1 C7.0898813 3.65742095 9 6.53550551 9 10 C8.01 10.33 7.02 10.66 6 11 C7.32 13.31 8.64 15.62 10 18 C9.34 18.99 8.68 19.98 8 21 C6.35 17.7 4.7 14.4 3 11 C2.34 11 1.68 11 1 11 C1 9.68 1 8.36 1 7 C1.99 7 2.98 7 4 7 C3.67 5.68 3.34 4.36 3 3 C1.35 3.33 -0.3 3.66 -2 4 C-1.34 2.68 -0.68 1.36 0 0 Z " fill="#C6AD75" transform="translate(210,199)"/>
<path d="M0 0 C1.04449911 3.13349732 0.93423645 3.98968256 0 7 C0.99 7.33 1.98 7.66 3 8 C2.31063929 11.91121498 1.21749819 15.55508596 -0.0625 19.3125 C-0.60583984 20.91544922 -0.60583984 20.91544922 -1.16015625 22.55078125 C-1.57587891 23.76314453 -1.57587891 23.76314453 -2 25 C-3.9375 24.6875 -3.9375 24.6875 -6 24 C-6.33 23.01 -6.66 22.02 -7 21 C-5.35 21.33 -3.7 21.66 -2 22 C-2.02320313 20.74703125 -2.04640625 19.4940625 -2.0703125 18.203125 C-2.08907427 16.5520893 -2.10727403 14.90104715 -2.125 13.25 C-2.14175781 12.425 -2.15851563 11.6 -2.17578125 10.75 C-2.18222656 9.95078125 -2.18867188 9.1515625 -2.1953125 8.328125 C-2.20578613 7.5949707 -2.21625977 6.86181641 -2.22705078 6.10644531 C-1.96777544 3.70103924 -1.19225925 2.08748506 0 0 Z " fill="#BBA26B" transform="translate(211,217)"/>
<path d="M0 0 C0.99 0 1.98 0 3 0 C2.58846263 4.97093824 2.20399168 9.44508386 0 14 C-0.99 14 -1.98 14 -3 14 C-3.05416188 12.39620659 -3.09286638 10.79188594 -3.125 9.1875 C-3.14820313 8.29417969 -3.17140625 7.40085937 -3.1953125 6.48046875 C-2.96995036 3.61836958 -2.05373066 2.05373066 0 0 Z " fill="#32675B" transform="translate(178,339)"/>
<path d="M0 0 C2.7697841 1.4714478 4.19083529 3.54259201 6 6.0625 C5.34 6.7225 4.68 7.3825 4 8.0625 C3.67 7.0725 3.34 6.0825 3 5.0625 C-1.1499242 4.99811016 -1.1499242 4.99811016 -5 6.0625 C-6.1500831 8.02922915 -6.1500831 8.02922915 -7 10.0625 C-7.99 10.5575 -7.99 10.5575 -9 11.0625 C-9.33 9.4125 -9.66 7.7625 -10 6.0625 C-9.4225 5.815 -8.845 5.5675 -8.25 5.3125 C-5.85763533 4.13919729 -5.85763533 4.13919729 -4 1.875 C-2 0.0625 -2 0.0625 0 0 Z " fill="#BCA86F" transform="translate(241,214.9375)"/>
<path d="M0 0 C0.66 0.33 1.32 0.66 2 1 C2.125 3.6875 2.125 3.6875 1 7 C-2.91495339 9.86037185 -6.9015576 12.27534811 -11.828125 11.62890625 C-12.90320313 11.31759766 -12.90320313 11.31759766 -14 11 C-14 10.67 -14 10.34 -14 10 C-12.35 10 -10.7 10 -9 10 C-8.67 9.01 -8.34 8.02 -8 7 C-7.34 7 -6.68 7 -6 7 C-6 6.34 -6 5.68 -6 5 C-4.02 4.67 -2.04 4.34 0 4 C0 2.68 0 1.36 0 0 Z " fill="#377365" transform="translate(214,277)"/>
<path d="M0 0 C1.14271055 3.42813165 0.82699932 4.30911099 -0.3125 7.625 C-0.70888672 8.81996094 -0.70888672 8.81996094 -1.11328125 10.0390625 C-2 12 -2 12 -4 13 C-4 14.32 -4 15.64 -4 17 C-6 19.25 -6 19.25 -8 21 C-8.66 20.67 -9.32 20.34 -10 20 C-8.52430274 16.8525276 -7.04386446 13.70730861 -5.5625 10.5625 C-5.14162109 9.66466797 -4.72074219 8.76683594 -4.28710938 7.84179688 C-3.88427734 6.98779297 -3.48144531 6.13378906 -3.06640625 5.25390625 C-2.5086853 4.06776733 -2.5086853 4.06776733 -1.93969727 2.85766602 C-1 1 -1 1 0 0 Z " fill="#4F8579" transform="translate(200,319)"/>
<path d="M0 0 C0 0.66 0 1.32 0 2 C-1.62053812 3.38903267 -3.29705213 4.71332828 -5 6 C-5.845625 6.763125 -6.69125 7.52625 -7.5625 8.3125 C-10 10 -10 10 -12.3125 9.75 C-12.869375 9.5025 -13.42625 9.255 -14 9 C-14.33 9.99 -14.66 10.98 -15 12 C-15.66 12 -16.32 12 -17 12 C-15.51142407 7.65179136 -12.27200068 5.9591978 -8.5 3.75 C-7.60861328 3.20472656 -7.60861328 3.20472656 -6.69921875 2.6484375 C-2.28847509 0 -2.28847509 0 0 0 Z " fill="#3C7766" transform="translate(192,170)"/>
<path d="M0 0 C0.90492188 0.02320313 1.80984375 0.04640625 2.7421875 0.0703125 C3.65226562 0.08835937 4.56234375 0.10640625 5.5 0.125 C6.19867188 0.14820313 6.89734375 0.17140625 7.6171875 0.1953125 C1.05967504 5.77454804 -8.155695 5.46505406 -16.3828125 5.1953125 C-16.3828125 4.5353125 -16.3828125 3.8753125 -16.3828125 3.1953125 C-15.53976563 3.14632813 -14.69671875 3.09734375 -13.828125 3.046875 C-12.73242188 2.97210938 -11.63671875 2.89734375 -10.5078125 2.8203125 C-8.87199219 2.71589844 -8.87199219 2.71589844 -7.203125 2.609375 C-3.86463479 2.11923655 -3.25536203 0.26683295 0 0 Z " fill="#5B8B7F" transform="translate(246.3828125,417.8046875)"/>
<path d="M0 0 C1.85776765 3.13498292 2.20140476 5.37471432 2 9 C1.67 7.68 1.34 6.36 1 5 C-2.94455388 7.07608099 -3.91100178 7.82200357 -6 12 C-6.99 8.37 -7.98 4.74 -9 1 C-6.69 1.66 -4.38 2.32 -2 3 C-1.34 2.01 -0.68 1.02 0 0 Z " fill="#3E7867" transform="translate(179,316)"/>
<path d="M0 0 C0.88494141 -0.01224609 1.76988281 -0.02449219 2.68164062 -0.03710938 C3.52791016 -0.03904297 4.37417969 -0.04097656 5.24609375 -0.04296875 C6.02525146 -0.04707764 6.80440918 -0.05118652 7.60717773 -0.05541992 C9.5625 0.1875 9.5625 0.1875 11.5625 2.1875 C10.48871094 2.24808594 9.41492188 2.30867187 8.30859375 2.37109375 C6.87238685 2.45557651 5.43618942 2.54022054 4 2.625 C3.29552734 2.66431641 2.59105469 2.70363281 1.86523438 2.74414062 C-2.6173541 3.01268279 -7.00043497 3.49366197 -11.4375 4.1875 C-9.51158665 -1.59024006 -5.45040161 0.00395243 0 0 Z " fill="#548378" transform="translate(222.4375,176.8125)"/>
<path d="M0 0 C1.65 0.33 3.3 0.66 5 1 C5.47727616 5.93185362 4.01131706 10.53450707 2 15 C1.01 15.495 1.01 15.495 0 16 C-0.33 16.99 -0.66 17.98 -1 19 C-1.66 19 -2.32 19 -3 19 C-1.16129032 14.2718894 -1.16129032 14.2718894 0.09375 12.15625 C1.23805555 9.43359196 1.00780665 7.65933051 0.625 4.75 C0.51414063 3.85796875 0.40328125 2.9659375 0.2890625 2.046875 C0.14597656 1.03367188 0.14597656 1.03367188 0 0 Z " fill="#89916D" transform="translate(255,231)"/>
<path d="M0 0 C2.125 0.9375 2.125 0.9375 4 2 C4 2.66 4 3.32 4 4 C4.66 4 5.32 4 6 4 C6 4.66 6 5.32 6 6 C7.65 6 9.3 6 11 6 C11 6.66 11 7.32 11 8 C8.69 7.67 6.38 7.34 4 7 C3.67 6.01 3.34 5.02 3 4 C1.01508358 4.26676204 1.01508358 4.26676204 -1 5 C-1.33 5.99 -1.66 6.98 -2 8 C-2.66 8 -3.32 8 -4 8 C-4.33 8.66 -4.66 9.32 -5 10 C-5.66 9.67 -6.32 9.34 -7 9 C-6.21448343 7.68381002 -5.4213763 6.37214772 -4.625 5.0625 C-4.18414062 4.33160156 -3.74328125 3.60070312 -3.2890625 2.84765625 C-2 1 -2 1 0 0 Z " fill="#C0AB7A" transform="translate(179,218)"/>
<path d="M0 0 C5.31825804 5.31825804 5.16743082 13.8254008 5.20654297 20.92236328 C5.17880482 24.95008524 5.10647839 28.9735394 5 33 C4.67 33 4.34 33 4 33 C4 26.73 4 20.46 4 14 C3.34 14 2.68 14 2 14 C1.8046875 11.98177083 1.609375 9.96354167 1.4140625 7.9453125 C1.13625251 5.77331755 1.13625251 5.77331755 -1 4 C-0.625 1.875 -0.625 1.875 0 0 Z " fill="#638D82" transform="translate(270,358)"/>
<path d="M0 0 C0.6875 1.8125 0.6875 1.8125 1 4 C-1.01988694 6.80539853 -3.94065682 8.47032841 -7 10 C-7.99 9.67 -8.98 9.34 -10 9 C-10 9.66 -10 10.32 -10 11 C-12.875 11.625 -12.875 11.625 -16 12 C-16.66 11.34 -17.32 10.68 -18 10 C-16.989375 9.7525 -15.97875 9.505 -14.9375 9.25 C-12.09020145 8.45136748 -9.73047968 7.38155519 -7.1875 5.875 C-4 4 -4 4 -2 4 C-1.34 2.68 -0.68 1.36 0 0 Z " fill="#578A7B" transform="translate(254,393)"/>
<path d="M0 0 C4.95 0 9.9 0 15 0 C13 4 13 4 9.875 5.25 C8.92625 5.4975 7.9775 5.745 7 6 C6.6596875 5.0409375 6.6596875 5.0409375 6.3125 4.0625 C5.14749104 1.72806339 5.14749104 1.72806339 2.375 1.25 C1.59125 1.1675 0.8075 1.085 0 1 C0 0.67 0 0.34 0 0 Z " fill="#B5A067" transform="translate(169,241)"/>
<path d="M0 0 C-0.33 0.99 -0.66 1.98 -1 3 C-3.32809543 3.68473395 -5.66237777 4.34853151 -8 5 C-10.01182457 6.31542376 -12.01399663 7.6459068 -14 9 C-14.99 9 -15.98 9 -17 9 C-15.75482035 7.86966702 -14.50363348 6.74594964 -13.25 5.625 C-12.55390625 4.99851562 -11.8578125 4.37203125 -11.140625 3.7265625 C-7.38758331 0.69947413 -4.83049779 -0.26836099 0 0 Z " fill="#56877D" transform="translate(269,100)"/>
<path d="M0 0 C2.64 0.33 5.28 0.66 8 1 C7.67 2.98 7.34 4.96 7 7 C6.01 6.67 5.02 6.34 4 6 C3.34 6.66 2.68 7.32 2 8 C1.67 7.01 1.34 6.02 1 5 C0.34 4.67 -0.32 4.34 -1 4 C-0.67 2.68 -0.34 1.36 0 0 Z " fill="#175B4A" transform="translate(171,313)"/>
<path d="M0 0 C-1.4859916 4.59306496 -3.85014682 7.43569245 -7 11 C-7.99 10.34 -8.98 9.68 -10 9 C-8.13405729 4.41995879 -5.20913241 0 0 0 Z " fill="#35796A" transform="translate(271,401)"/>
<path d="M0 0 C-0.185625 0.61875 -0.37125 1.2375 -0.5625 1.875 C-1.23686176 4.04160178 -1.23686176 4.04160178 0 6 C-1.32 6.33 -2.64 6.66 -4 7 C-4 7.99 -4 8.98 -4 10 C-4.66 10 -5.32 10 -6 10 C-6.66 7.03 -7.32 4.06 -8 1 C-7.01 1.495 -7.01 1.495 -6 2 C-3 0 -3 0 0 0 Z " fill="#165A4C" transform="translate(259,333)"/>
<path d="M0 0 C-0.66 1.65 -1.32 3.3 -2 5 C-6.48525648 4.343621 -10.66914029 3.29925791 -15 2 C-15 1.67 -15 1.34 -15 1 C-13.0641649 0.63684334 -11.12624752 0.28477269 -9.1875 -0.0625 C-8.10855469 -0.25972656 -7.02960938 -0.45695312 -5.91796875 -0.66015625 C-3 -1 -3 -1 0 0 Z " fill="#256A59" transform="translate(176,265)"/>
<path d="M0 0 C0.66 0 1.32 0 2 0 C4.09230769 4.43076923 4.09230769 4.43076923 3.625 7.3125 C3.41875 7.869375 3.2125 8.42625 3 9 C3 8.01 3 7.02 3 6 C1.02 6 -0.96 6 -3 6 C-3 8.97 -3 11.94 -3 15 C-3.33 15 -3.66 15 -4 15 C-4 11.04 -4 7.08 -4 3 C-3.01 2.67 -2.02 2.34 -1 2 C-0.67 1.34 -0.34 0.68 0 0 Z " fill="#639187" transform="translate(267,204)"/>
<path d="M0 0 C0 0.66 0 1.32 0 2 C-1.98 2 -3.96 2 -6 2 C-6.33 2.66 -6.66 3.32 -7 4 C-11.44500224 5.33350067 -15.3318831 6.29175731 -20 6 C-17.42501192 3.42501192 -15.16172058 2.93733245 -11.6875 1.875 C-10.55699219 1.52179688 -9.42648438 1.16859375 -8.26171875 0.8046875 C-5.33613198 0.08292597 -2.98951921 -0.16826562 0 0 Z " fill="#4A796F" transform="translate(217,162)"/>
<path d="M0 0 C0.99 0 1.98 0 3 0 C3.66 2.31 4.32 4.62 5 7 C3.68 7 2.36 7 1 7 C0.67 7.99 0.34 8.98 0 10 C-0.66 10 -1.32 10 -2 10 C-1.85950482 8.52031676 -1.71245174 7.04125484 -1.5625 5.5625 C-1.48128906 4.73878906 -1.40007812 3.91507812 -1.31640625 3.06640625 C-1 1 -1 1 0 0 Z " fill="#1B5C4D" transform="translate(247,308)"/>
<path d="M0 0 C0.33 0.66 0.66 1.32 1 2 C1.61875 1.79375 2.2375 1.5875 2.875 1.375 C3.57625 1.25125 4.2775 1.1275 5 1 C5.66 1.66 6.32 2.32 7 3 C6.01 3.66 5.02 4.32 4 5 C3.41810734 7.42521494 3.41810734 7.42521494 3.3125 10.125 C3.24675781 11.03507812 3.18101562 11.94515625 3.11328125 12.8828125 C3.07589844 13.58148438 3.03851563 14.28015625 3 15 C0.33421206 9.76595295 -0.11424589 5.94078624 0 0 Z " fill="#3B7D6D" transform="translate(145,251)"/>
<path d="M0 0 C0 3.38023517 -0.87455622 5.83468937 -2 9 C-2.99 9 -3.98 9 -5 9 C-5 10.32 -5 11.64 -5 13 C-6.65 13.66 -8.3 14.32 -10 15 C-8.59601721 10.89889238 -6.62912962 8.01910841 -3.875 4.6875 C-3.15054688 3.80449219 -2.42609375 2.92148437 -1.6796875 2.01171875 C-1.12539062 1.34785156 -0.57109375 0.68398438 0 0 Z " fill="#4D8074" transform="translate(217,295)"/>
<path d="M0 0 C0.99 0.33 1.98 0.66 3 1 C2.67 1.99 2.34 2.98 2 4 C1.84104422 8.84815131 2.04496111 13.22480555 3 18 C0.5409608 15.64787554 -0.92766943 14.24025651 -1.1328125 10.72265625 C-1.13023437 9.84480469 -1.12765625 8.96695312 -1.125 8.0625 C-1.12757813 7.18722656 -1.13015625 6.31195313 -1.1328125 5.41015625 C-1 3 -1 3 0 0 Z " fill="#59877C" transform="translate(176,296)"/>
<path d="M0 0 C0.33 0 0.66 0 1 0 C1.17942163 3.94727588 1.09350689 6.5980513 -1 10 C-0.34 10.33 0.32 10.66 1 11 C-0.28965176 12.37562854 -1.62689293 13.70766393 -3 15 C-3.66 15 -4.32 15 -5 15 C-3.78623966 9.67812773 -2.27376292 4.96093728 0 0 Z " fill="#4D7D71" transform="translate(151,207)"/>
<path d="M0 0 C0.66 0.33 1.32 0.66 2 1 C2.99 0.67 3.98 0.34 5 0 C7.1875 0.9375 7.1875 0.9375 9 2 C7.375 4.0625 7.375 4.0625 5 6 C1.75 5.75 1.75 5.75 -1 5 C-0.67 3.35 -0.34 1.7 0 0 Z " fill="#2A6D60" transform="translate(267,153)"/>
<path d="M0 0 C0.33 0 0.66 0 1 0 C1.3690205 15.74487472 1.3690205 15.74487472 -1 23 C-1.33 23 -1.66 23 -2 23 C-2.31918373 15.14453364 -1.35709504 7.73059495 0 0 Z " fill="#6A9790" transform="translate(246,294)"/>
<path d="M0 0 C0.59167969 0.08378906 1.18335938 0.16757812 1.79296875 0.25390625 C6.09939457 0.80889424 9.75552644 1.23226652 14 0 C13.1875 1.9375 13.1875 1.9375 12 4 C11.01 4.33 10.02 4.66 9 5 C8.34 4.67 7.68 4.34 7 4 C5.33380554 3.9603287 3.66608987 3.95615553 2 4 C2 3.01 2 2.02 2 1 C1.34 0.67 0.68 0.34 0 0 Z " fill="#1A604A" transform="translate(217,264)"/>
<path d="M0 0 C0.66 0.33 1.32 0.66 2 1 C2 2.65 2 4.3 2 6 C0.25 6.75 0.25 6.75 -2 7 C-4.25 5.0625 -4.25 5.0625 -6 3 C-4.03533587 1.93224776 -2.03144641 0.93446535 0 0 Z " fill="#286E5D" transform="translate(199,400)"/>
<path d="M0 0 C0.99 0 1.98 0 3 0 C3 2.64 3 5.28 3 8 C2.01 8 1.02 8 0 8 C0 9.65 0 11.3 0 13 C-0.33 13 -0.66 13 -1 13 C-1.02696365 11.20841511 -1.04637917 9.41671527 -1.0625 7.625 C-1.07410156 6.62726563 -1.08570313 5.62953125 -1.09765625 4.6015625 C-1 2 -1 2 0 0 Z " fill="#1D5B4C" transform="translate(201,370)"/>
<path d="M0 0 C0.99 0 1.98 0 3 0 C3.33 1.32 3.66 2.64 4 4 C3.01 4.495 3.01 4.495 2 5 C1.34 4.67 0.68 4.34 0 4 C0 5.32 0 6.64 0 8 C-0.99 8.33 -1.98 8.66 -3 9 C-3.33 8.01 -3.66 7.02 -4 6 C-2.25 2.8125 -2.25 2.8125 0 0 Z " fill="#B5933E" transform="translate(211,202)"/>
<path d="M0 0 C0 2.64 0 5.28 0 8 C-0.99 8 -1.98 8 -3 8 C-6 4.66666667 -6 4.66666667 -6 2 C-6.66 1.67 -7.32 1.34 -8 1 C-5.07175348 0.02391783 -3.04386724 -0.08226668 0 0 Z " fill="#40796E" transform="translate(271,192)"/>
<path d="M0 0 C2.97 0.495 2.97 0.495 6 1 C6.33 3.97 6.66 6.94 7 10 C6.01 10.495 6.01 10.495 5 11 C3.35 7.37 1.7 3.74 0 0 Z " fill="#3E756B" transform="translate(157,289)"/>
<path d="M0 0 C0.66 0 1.32 0 2 0 C2.125 6.625 2.125 6.625 1 10 C-1.475 9.01 -1.475 9.01 -4 8 C-2.68 5.36 -1.36 2.72 0 0 Z " fill="#1C5C4B" transform="translate(157,225)"/>
<path d="M0 0 C3.6 5.4 3.6 5.4 5 8 C4.67 8.66 4.34 9.32 4 10 C2.68 9.01 1.36 8.02 0 7 C0.33 6.34 0.66 5.68 1 5 C0.34 4.67 -0.32 4.34 -1 4 C-0.67 2.68 -0.34 1.36 0 0 Z M-6 4 C-3.525 4.495 -3.525 4.495 -1 5 C-0.67 6.65 -0.34 8.3 0 10 C-0.66 10 -1.32 10 -2 10 C-3.38938077 8.03852126 -4.7260411 6.03833424 -6 4 Z " fill="#65948D" transform="translate(201,402)"/>
<path d="M0 0 C1.32 0.99 2.64 1.98 4 3 C3.75 4.875 3.75 4.875 3 7 C0.9375 8.25 0.9375 8.25 -1 9 C-2 8 -2 8 -2.0625 4.4375 C-2.041875 3.303125 -2.02125 2.16875 -2 1 C-1.34 0.67 -0.68 0.34 0 0 Z " fill="#16614E" transform="translate(203,383)"/>
<path d="M0 0 C0 3.20395416 -0.74335022 5.09399739 -2 8 C-1.34 8 -0.68 8 0 8 C-0.33 8.66 -0.66 9.32 -1 10 C-3.32156597 10.40729228 -5.6568787 10.74438677 -8 11 C-7.04454634 9.53977837 -6.08553322 8.08188532 -5.125 6.625 C-4.59132812 5.81289062 -4.05765625 5.00078125 -3.5078125 4.1640625 C-2 2 -2 2 0 0 Z " fill="#C0A96B" transform="translate(198,213)"/>
<path d="M0 0 C0.33 0 0.66 0 1 0 C1 2.31 1 4.62 1 7 C-1.52475462 8.26237731 -3.31200466 8.09856404 -6.125 8.0625 C-7.03507813 8.05347656 -7.94515625 8.04445313 -8.8828125 8.03515625 C-9.58148438 8.02355469 -10.28015625 8.01195312 -11 8 C-11 7.67 -11 7.34 -11 7 C-8.69 7 -6.38 7 -4 7 C-3.71125 6.401875 -3.4225 5.80375 -3.125 5.1875 C-2 3 -2 3 0 0 Z " fill="#53887E" transform="translate(246,258)"/>
<path d="M0 0 C0.33 0.66 0.66 1.32 1 2 C1.99 2.33 2.98 2.66 4 3 C3.34 4.32 2.68 5.64 2 7 C1.34 7 0.68 7 0 7 C-0.33 6.34 -0.66 5.68 -1 5 C-1.66 6.65 -2.32 8.3 -3 10 C-3.33 10 -3.66 10 -4 10 C-4 7.69 -4 5.38 -4 3 C-3.01 2.67 -2.02 2.34 -1 2 C-0.67 1.34 -0.34 0.68 0 0 Z " fill="#70928C" transform="translate(272,239)"/>
<path d="M0 0 C0.99 0.33 1.98 0.66 3 1 C1.68 4.96 0.36 8.92 -1 13 C-2.32 12.67 -3.64 12.34 -5 12 C-5.33 11.01 -5.66 10.02 -6 9 C-3.525 9.495 -3.525 9.495 -1 10 C-0.67 6.7 -0.34 3.4 0 0 Z " fill="#C4AC82" transform="translate(210,229)"/>
<path d="M0 0 C1.32 0 2.64 0 4 0 C3.82374165 2.37948772 3.30280227 3.70225849 1.59765625 5.37890625 C0.09350908 6.62115486 -1.45129851 7.81376056 -3 9 C-3 8.34 -3 7.68 -3 7 C-3.66 7 -4.32 7 -5 7 C-5 6.34 -5 5.68 -5 5 C-3.68 4.67 -2.36 4.34 -1 4 C-0.67 2.68 -0.34 1.36 0 0 Z " fill="#427166" transform="translate(230,144)"/>
<path d="M0 0 C0.33 0.66 0.66 1.32 1 2 C0.67 2.66 0.34 3.32 0 4 C0.66 4.33 1.32 4.66 2 5 C1.34 5 0.68 5 0 5 C-0.4021875 6.7015625 -0.4021875 6.7015625 -0.8125 8.4375 C-1.204375 9.613125 -1.59625 10.78875 -2 12 C-2.99 12.33 -3.98 12.66 -5 13 C-4.48474397 7.71862571 -2.74522883 4.42778844 0 0 Z " fill="#4D7E71" transform="translate(250,112)"/>
<path d="M0 0 C0 0.99 0 1.98 0 3 C-4.82360189 3.19294408 -8.49646738 2.75747614 -13 1 C-13 0.67 -13 0.34 -13 0 C-8.3008219 -1.01603851 -4.6991781 -1.01603851 0 0 Z " fill="#42786C" transform="translate(232,268)"/>
<path d="M0 0 C0.85464844 0.2165625 1.70929688 0.433125 2.58984375 0.65625 C4.24693359 1.07390625 4.24693359 1.07390625 5.9375 1.5 C7.03964844 1.7784375 8.14179688 2.056875 9.27734375 2.34375 C11.69525504 3.03905373 11.69525504 3.03905373 13 3 C13.66 3.33 14.32 3.66 15 4 C15 4.66 15 5.32 15 6 C8.89357521 6.78287497 4.99540421 4.10825151 0 1 C0 0.67 0 0.34 0 0 Z " fill="#507C74" transform="translate(214,416)"/>
<path d="M0 0 C0.99 0.99 1.98 1.98 3 3 C2.34 4.65 1.68 6.3 1 8 C-0.9375 7.1875 -0.9375 7.1875 -3 6 C-3.33 5.01 -3.66 4.02 -4 3 C-2.68 2.01 -1.36 1.02 0 0 Z " fill="#2F6D5F" transform="translate(213,408)"/>
<path d="M0 0 C0.99 0.33 1.98 0.66 3 1 C1.69118353 2.66956087 0.37785174 4.33558304 -0.9375 6 C-1.66839844 6.928125 -2.39929688 7.85625 -3.15234375 8.8125 C-3.76207031 9.534375 -4.37179688 10.25625 -5 11 C-5.33 11 -5.66 11 -6 11 C-6 9.35 -6 7.7 -6 6 C-4.68 5.67 -3.36 5.34 -2 5 C-2 3.68 -2 2.36 -2 1 C-1.34 0.67 -0.68 0.34 0 0 Z " fill="#497D71" transform="translate(236,294)"/>
<path d="M0 0 C4.05606165 0.46800711 7.46588679 0.87953208 11 3 C9.75 4.5625 9.75 4.5625 8 6 C6.0625 6 6.0625 6 4 5 C1.75 2.4375 1.75 2.4375 0 0 Z " fill="#1B5C4D" transform="translate(205,258)"/>
<path d="M0 0 C2.475 0.495 2.475 0.495 5 1 C5 1.66 5 2.32 5 3 C5.99 3 6.98 3 8 3 C8 3.66 8 4.32 8 5 C5.69 5.33 3.38 5.66 1 6 C0.67 4.02 0.34 2.04 0 0 Z " fill="#B9A16B" transform="translate(191,233)"/>
<path d="M0 0 C0.33 0.99 0.66 1.98 1 3 C-1.31 5.31 -3.62 7.62 -6 10 C-6.99 9.67 -7.98 9.34 -9 9 C-8.06725891 7.87105124 -7.12859878 6.74699124 -6.1875 5.625 C-5.66542969 4.99851563 -5.14335937 4.37203125 -4.60546875 3.7265625 C-3 2 -3 2 0 0 Z " fill="#46756A" transform="translate(173,181)"/>
<path d="M0 0 C1.57156655 3.1431331 0.11705576 5.365464 -0.9375 8.625 C-1.31777344 9.81351563 -1.69804687 11.00203125 -2.08984375 12.2265625 C-2.39019531 13.14179688 -2.69054687 14.05703125 -3 15 C-3.33 15 -3.66 15 -4 15 C-4.34650743 9.34037856 -3.48055609 5.96111218 -1 1 C-0.67 0.67 -0.34 0.34 0 0 Z " fill="#588173" transform="translate(150,148)"/>
<path d="M0 0 C0.33 0 0.66 0 1 0 C1.13277344 0.81984375 1.26554688 1.6396875 1.40234375 2.484375 C1.57894531 3.56203125 1.75554687 4.6396875 1.9375 5.75 C2.11152344 6.81734375 2.28554687 7.8846875 2.46484375 8.984375 C2.88704171 11.36347593 3.37202884 13.66915211 4 16 C3.01 16.33 2.02 16.66 1 17 C0.896875 15.906875 0.79375 14.81375 0.6875 13.6875 C0.02692273 10.14440371 -0.2027092 9.06756277 -3 7 C-2.01 7 -1.02 7 0 7 C0 4.69 0 2.38 0 0 Z " fill="#618E83" transform="translate(204,371)"/>
<path d="M0 0 C0 1.65 0 3.3 0 5 C-1.32 5.33 -2.64 5.66 -4 6 C-4 5.34 -4 4.68 -4 4 C-5.65 3.67 -7.3 3.34 -9 3 C-5.73209435 0.82139623 -3.91954654 0 0 0 Z " fill="#1A5E4E" transform="translate(197,256)"/>
<path d="M0 0 C1.15957207 3.47871621 0.77456651 4.34219645 -0.4375 7.6875 C-0.86869141 8.89986328 -0.86869141 8.89986328 -1.30859375 10.13671875 C-1.53675781 10.75160156 -1.76492187 11.36648438 -2 12 C-2.66 12 -3.32 12 -4 12 C-3.5317879 7.22423661 -2.75668002 3.95523655 0 0 Z " fill="#47796C" transform="translate(200,319)"/>
<path d="M0 0 C0.66 0 1.32 0 2 0 C2 0.99 2 1.98 2 3 C2.66 3 3.32 3 4 3 C4.33 6.63 4.66 10.26 5 14 C4.34 13.67 3.68 13.34 3 13 C2.37330801 10.83532539 1.84572626 8.64135476 1.375 6.4375 C1.11460937 5.23996094 0.85421875 4.04242188 0.5859375 2.80859375 C0.39257812 1.88175781 0.19921875 0.95492187 0 0 Z " fill="#C7B487" transform="translate(226,224)"/>
<path d="M0 0 C0.99 0.99 1.98 1.98 3 3 C2.67 3.680625 2.34 4.36125 2 5.0625 C0.82692685 8.50840238 0.85819507 11.38397422 1 15 C-1.18085057 11.72872414 -1.24887859 10.72623277 -1.1875 6.9375 C-1.18105469 6.05964844 -1.17460937 5.18179688 -1.16796875 4.27734375 C-1 2 -1 2 0 0 Z " fill="#5A8B7E" transform="translate(130,176)"/>
<path d="M0 0 C0.99 0.33 1.98 0.66 3 1 C3 2.32 3 3.64 3 5 C2.34 5 1.68 5 1 5 C1 6.65 1 8.3 1 10 C-1.62386487 6.93882432 -2 6.26826873 -2 2 C-1.34 2 -0.68 2 0 2 C0 1.34 0 0.68 0 0 Z " fill="#497F74" transform="translate(149,161)"/>
<path d="M0 0 C1.32 0.33 2.64 0.66 4 1 C4.33 4.96 4.66 8.92 5 13 C2.53698577 10.53698577 2.23233479 8.72639964 1.375 5.375 C1.11460937 4.37210937 0.85421875 3.36921875 0.5859375 2.3359375 C0.39257812 1.56507813 0.19921875 0.79421875 0 0 Z " fill="#578F82" transform="translate(185,384)"/>
<path d="M0 0 C0.99 0 1.98 0 3 0 C2.67 1.32 2.34 2.64 2 4 C1.01 3.67 0.02 3.34 -1 3 C-0.67 2.01 -0.34 1.02 0 0 Z M-5 2 C-3.68 2.66 -2.36 3.32 -1 4 C-4.75 6 -4.75 6 -7 6 C-6.34 4.68 -5.68 3.36 -5 2 Z " fill="#216C5D" transform="translate(265,351)"/>
<path d="M0 0 C-3.625 5.75 -3.625 5.75 -7 8 C-7 7.01 -7 6.02 -7 5 C-6.34 5 -5.68 5 -5 5 C-5 4.34 -5 3.68 -5 3 C-5.66 3 -6.32 3 -7 3 C-7 2.34 -7 1.68 -7 1 C-4.53721199 -0.231394 -2.7204945 -0.07159196 0 0 Z " fill="#3A7367" transform="translate(248,283)"/>
<path d="M0 0 C0.66 0 1.32 0 2 0 C2 2.97 2 5.94 2 9 C1.34 8.67 0.68 8.34 0 8 C-0.66 8.66 -1.32 9.32 -2 10 C-2.33 8.68 -2.66 7.36 -3 6 C-2.01 5.67 -1.02 5.34 0 5 C0 3.35 0 1.7 0 0 Z " fill="#306749" transform="translate(155,238)"/>
<path d="M0 0 C0.66 0.33 1.32 0.66 2 1 C1.8125 3.875 1.8125 3.875 1 7 C-1.5625 8.375 -1.5625 8.375 -4 9 C-4 8.34 -4 7.68 -4 7 C-3.34 7 -2.68 7 -2 7 C-2 6.34 -2 5.68 -2 5 C-2.66 4.67 -3.32 4.34 -4 4 C-2.68 4 -1.36 4 0 4 C0 2.68 0 1.36 0 0 Z " fill="#548477" transform="translate(214,277)"/>
<path d="M0 0 C1.74627478 2.61941217 2.38722388 4.03824877 3 7 C-0.68754757 6.50168276 -2.60490662 5.89932357 -5 3 C-4.360625 2.87625 -3.72125 2.7525 -3.0625 2.625 C-2.0415625 2.315625 -2.0415625 2.315625 -1 2 C-0.67 1.34 -0.34 0.68 0 0 Z " fill="#C3B586" transform="translate(238,238)"/>
<path d="M0 0 C0.99 0.66 1.98 1.32 3 2 C0.36 4.31 -2.28 6.62 -5 9 C-5.66 7.68 -6.32 6.36 -7 5 C-5.68 5 -4.36 5 -3 5 C-2.690625 4.360625 -2.38125 3.72125 -2.0625 3.0625 C-1 1 -1 1 0 0 Z " fill="#C9A877" transform="translate(190,234)"/>
<path d="M0 0 C0.33 0.66 0.66 1.32 1 2 C2.32 1.67 3.64 1.34 5 1 C5 2.98 5 4.96 5 7 C4.01 7 3.02 7 2 7 C1.67 7.66 1.34 8.32 1 9 C1.33 7.02 1.66 5.04 2 3 C1.34 3 0.68 3 0 3 C0 2.01 0 1.02 0 0 Z " fill="#598176" transform="translate(199,363)"/>
<path d="M0 0 C0.33 0 0.66 0 1 0 C1.98248524 4.0527516 2.08159574 7.83861737 2 12 C1.01 12.495 1.01 12.495 0 13 C-0.19658808 11.58456585 -0.38187546 10.16755969 -0.5625 8.75 C-0.66691406 7.96109375 -0.77132812 7.1721875 -0.87890625 6.359375 C-1.00027349 3.99467126 -0.69633257 2.2488963 0 0 Z " fill="#30786E" transform="translate(180,325)"/>
<path d="M0 0 C0.66 0.33 1.32 0.66 2 1 C0.75023244 4.65316671 0.32901247 5.78065836 -3 8 C-3.99 6.68 -4.98 5.36 -6 4 C-4.7934375 3.566875 -4.7934375 3.566875 -3.5625 3.125 C-0.8673532 2.26737432 -0.8673532 2.26737432 0 0 Z " fill="#4D8076" transform="translate(255,269)"/>
<path d="M0 0 C1.9375 0.75 1.9375 0.75 4.9375 2.75 C4.9375 3.41 4.9375 4.07 4.9375 4.75 C1.3075 3.76 -2.3225 2.77 -6.0625 1.75 C-2.0625 -0.25 -2.0625 -0.25 0 0 Z " fill="#4B7C71" transform="translate(204.0625,258.25)"/>
<path d="M0 0 C0.99 0.99 1.98 1.98 3 3 C2.67 3.99 2.34 4.98 2 6 C-1.37462715 5.45276317 -3.08235 4.9451 -6 3 C-4.02 3 -2.04 3 0 3 C0 2.01 0 1.02 0 0 Z " fill="#BA9F7D" transform="translate(243,233)"/>
<path d="M0 0 C0.66 1.32 1.32 2.64 2 4 C1.34 4 0.68 4 0 4 C0 6.97 0 9.94 0 13 C-0.99 13.495 -0.99 13.495 -2 14 C-3.55577239 8.34264585 -2.24281523 5.20333134 0 0 Z " fill="#547965" transform="translate(262,223)"/>
<path d="M0 0 C1.9375 0.8125 1.9375 0.8125 4 2 C4.33 2.99 4.66 3.98 5 5 C4.34 5 3.68 5 3 5 C2.67 5.66 2.34 6.32 2 7 C1.01 7 0.02 7 -1 7 C-0.67 4.69 -0.34 2.38 0 0 Z " fill="#3D7D6D" transform="translate(226,110)"/>
<path d="M0 0 C0.66 0 1.32 0 2 0 C2 2.31 2 4.62 2 7 C2.66 7.33 3.32 7.66 4 8 C3.67 8.66 3.34 9.32 3 10 C2.01 10 1.02 10 0 10 C0 6.7 0 3.4 0 0 Z " fill="#7D9D97" transform="translate(175,343)"/>
<path d="M0 0 C0.66 0.33 1.32 0.66 2 1 C2 2.65 2 4.3 2 6 C0.68 6.33 -0.64 6.66 -2 7 C-2.125 4.625 -2.125 4.625 -2 2 C-1.34 1.34 -0.68 0.68 0 0 Z " fill="#356159" transform="translate(275,234)"/>
<path d="M0 0 C-1.04874998 2.62187494 -1.64931313 3.79371361 -4.125 5.25 C-4.74375 5.4975 -5.3625 5.745 -6 6 C-6.33 5.34 -6.66 4.68 -7 4 C-6.67 3.01 -6.34 2.02 -6 1 C-4 0 -4 0 0 0 Z " fill="#B79242" transform="translate(170,232)"/>
<path d="M0 0 C1.65 0.33 3.3 0.66 5 1 C5 1.66 5 2.32 5 3 C5.66 3.33 6.32 3.66 7 4 C4.69 4 2.38 4 0 4 C0 2.68 0 1.36 0 0 Z " fill="#B99C59" transform="translate(247,227)"/>
<path d="M0 0 C3.32604248 1.66302124 3.80042476 4.62976481 5 8 C4.6875 10.4375 4.6875 10.4375 4 12 C4 11.01 4 10.02 4 9 C3.34 9 2.68 9 2 9 C2 8.01 2 7.02 2 6 C1.01 5.67 0.02 5.34 -1 5 C-0.67 3.35 -0.34 1.7 0 0 Z " fill="#548980" transform="translate(194,130)"/>
<path d="M0 0 C0 0.66 0 1.32 0 2 C-3.82320557 3.42258812 -6.91281305 4.24042276 -11 4 C-10 2 -10 2 -7.75 0.875 C-4.98386705 -0.00513321 -2.87951649 -0.1645438 0 0 Z " fill="#528478" transform="translate(223,108)"/>
<path d="M0 0 C0.66 0.99 1.32 1.98 2 3 C2.66 2.67 3.32 2.34 4 2 C3.6875 3.9375 3.6875 3.9375 3 6 C2.01 6.33 1.02 6.66 0 7 C-0.99 6.34 -1.98 5.68 -3 5 C-2.01 3.35 -1.02 1.7 0 0 Z " fill="#367566" transform="translate(250,252)"/>
<path d="M0 0 C0.99 0.33 1.98 0.66 3 1 C2.34 2.65 1.68 4.3 1 6 C0.01 6 -0.98 6 -2 6 C-2 4.35 -2 2.7 -2 1 C-1.34 0.67 -0.68 0.34 0 0 Z " fill="#AB8D46" transform="translate(236,235)"/>
<path d="M0 0 C1.98 0.495 1.98 0.495 4 1 C3.01 4.3 2.02 7.6 1 11 C0.67 11 0.34 11 0 11 C-0.19406478 9.35492782 -0.38007935 7.70890406 -0.5625 6.0625 C-0.66691406 5.14597656 -0.77132813 4.22945312 -0.87890625 3.28515625 C-0.91886719 2.53105469 -0.95882813 1.77695313 -1 1 C-0.67 0.67 -0.34 0.34 0 0 Z " fill="#4D8979" transform="translate(274,209)"/>
<path d="M0 0 C0 2.62113708 -0.31292445 4.50935112 -1 7 C-2.65 7.33 -4.3 7.66 -6 8 C-4.26440562 4.942048 -2.61527381 2.36620011 0 0 Z " fill="#40796A" transform="translate(163,191)"/>
<path d="M0 0 C1.32 0.33 2.64 0.66 4 1 C0.535 3.97 0.535 3.97 -3 7 C-3.1875 4.625 -3.1875 4.625 -3 2 C-2.01 1.34 -1.02 0.68 0 0 Z " fill="#4D7E72" transform="translate(179,194)"/>
<path d="M0 0 C0.66 0 1.32 0 2 0 C2 0.66 2 1.32 2 2 C2.8971875 2.37125 2.8971875 2.37125 3.8125 2.75 C6.28647521 4.16370012 7.43370255 5.65055383 9 8 C7.35 8 5.7 8 4 8 C3.896875 7.38125 3.79375 6.7625 3.6875 6.125 C3.12474627 3.63473516 3.12474627 3.63473516 0 2 C0 1.34 0 0.68 0 0 Z " fill="#5A867D" transform="translate(265,171)"/>
<path d="M0 0 C0.33 0 0.66 0 1 0 C0.25 6.625 0.25 6.625 -2 10 C-2.33 9.01 -2.66 8.02 -3 7 C-3.99 7.495 -3.99 7.495 -5 8 C-4.67 6.68 -4.34 5.36 -4 4 C-2.68 4 -1.36 4 0 4 C0 2.68 0 1.36 0 0 Z " fill="#4E8478" transform="translate(287,134)"/>
<path d="M0 0 C0.99 0.33 1.98 0.66 3 1 C2.67 4.63 2.34 8.26 2 12 C1.67 12 1.34 12 1 12 C0.67 8.04 0.34 4.08 0 0 Z " fill="#65978A" transform="translate(174,328)"/>
<path d="M0 0 C1.65 0.33 3.3 0.66 5 1 C4.67 2.32 4.34 3.64 4 5 C2.35 4.67 0.7 4.34 -1 4 C-0.67 2.68 -0.34 1.36 0 0 Z " fill="#185E4B" transform="translate(227,283)"/>
<path d="M0 0 C-0.99 0.99 -1.98 1.98 -3 3 C-3 2.34 -3 1.68 -3 1 C-4.32 1.33 -5.64 1.66 -7 2 C-7.66 1.01 -8.32 0.02 -9 -1 C-5.23375329 -2.25541557 -3.62811066 -1.37061958 0 0 Z " fill="#C4AB74" transform="translate(228,221)"/>
<path d="M0 0 C0.33 0 0.66 0 1 0 C1 3.63 1 7.26 1 11 C-0.32 10.34 -1.64 9.68 -3 9 C-2.01 6.03 -1.02 3.06 0 0 Z " fill="#17594A" transform="translate(282,200)"/>
<path d="M0 0 C0.66 0 1.32 0 2 0 C2.33 0.99 2.66 1.98 3 3 C4.49985609 4.66710346 4.49985609 4.66710346 6 6 C5.67 6.99 5.34 7.98 5 9 C0 3.375 0 3.375 0 0 Z " fill="#417469" transform="translate(174,151)"/>
<path d="M0 0 C2.375 -0.125 2.375 -0.125 5 0 C5.66 0.66 6.32 1.32 7 2 C9.32275177 2.40047444 11.65739357 2.7397104 14 3 C14 3.33 14 3.66 14 4 C8.32723489 4.29341888 5.00932754 4.00559652 0 1 C0 0.67 0 0.34 0 0 Z " fill="#4F857C" transform="translate(211,150)"/>
<path d="M0 0 C1.875 0.125 1.875 0.125 4 1 C5.75 3.5625 5.75 3.5625 7 6 C6.34 6 5.68 6 5 6 C4.34 5.34 3.68 4.68 3 4 C2.01 4 1.02 4 0 4 C-0.33 3.01 -0.66 2.02 -1 1 C-0.67 0.67 -0.34 0.34 0 0 Z " fill="#387061" transform="translate(161,148)"/>
<path d="M0 0 C0.99 0.33 1.98 0.66 3 1 C4.1577506 4.47325181 4.06866652 7.36067448 4 11 C2.03698408 7.49461443 1.04097612 3.86648272 0 0 Z " fill="#659389" transform="translate(170,317)"/>
<path d="M0 0 C0.66 0.66 1.32 1.32 2 2 C0.35 4.31 -1.3 6.62 -3 9 C-3.33 7.68 -3.66 6.36 -4 5 C-3.34 5 -2.68 5 -2 5 C-2.33 4.01 -2.66 3.02 -3 2 C-2.01 1.34 -1.02 0.68 0 0 Z " fill="#528276" transform="translate(221,314)"/>
<path d="M0 0 C0.33 0 0.66 0 1 0 C1.125 3.375 1.125 3.375 1 7 C0.34 7.66 -0.32 8.32 -1 9 C-2.1875 6.75 -2.1875 6.75 -3 4 C-1.6875 1.6875 -1.6875 1.6875 0 0 Z " fill="#44796C" transform="translate(223,287)"/>
<path d="M0 0 C0.33 0.99 0.66 1.98 1 3 C-0.97746603 3.73080266 -2.98072489 4.39421747 -5 5 C-5.66 4.67 -6.32 4.34 -7 4 C-4.82575883 1.49962266 -3.26954202 0.56371414 0 0 Z " fill="#C0AD71" transform="translate(171,228)"/>
<path d="M0 0 C0.99 0.33 1.98 0.66 3 1 C2.01 3.31 1.02 5.62 0 8 C-0.33 7.34 -0.66 6.68 -1 6 C-3.02463255 5.34786708 -3.02463255 5.34786708 -5 5 C-4.360625 4.731875 -3.72125 4.46375 -3.0625 4.1875 C-0.66868314 3.11332248 -0.66868314 3.11332248 0 0 Z " fill="#4A7B70" transform="translate(165,210)"/>
<path d="M0 0 C0.66 0.33 1.32 0.66 2 1 C1.34 3.97 0.68 6.94 0 10 C-0.66 10 -1.32 10 -2 10 C-1.125 2.25 -1.125 2.25 0 0 Z " fill="#206254" transform="translate(277,210)"/>
<path d="M0 0 C0 0.66 0 1.32 0 2 C-1.62626404 3.38232443 -3.2925002 4.71937515 -5 6 C-6.32 5.34 -7.64 4.68 -9 4 C-2.25 0 -2.25 0 0 0 Z " fill="#517B70" transform="translate(192,170)"/>
<path d="M0 0 C1.0725 0.2475 2.145 0.495 3.25 0.75 C0.34907498 2.68395001 -0.64674737 3.05131941 -3.9375 3.375 C-5.195625 3.49875 -6.45375 3.6225 -7.75 3.75 C-5.15187156 0.32047046 -4.43092205 -0.2953948 0 0 Z " fill="#557E73" transform="translate(138.75,172.25)"/>
<path d="M0 0 C0.125 2.875 0.125 2.875 0 6 C-0.66 6.66 -1.32 7.32 -2 8 C-2 7.01 -2 6.02 -2 5 C-2.99 4.67 -3.98 4.34 -5 4 C-1.125 0 -1.125 0 0 0 Z " fill="#357265" transform="translate(285,140)"/>
<path d="M0 0 C3.96 1.98 3.96 1.98 8 4 C7.34 4.66 6.68 5.32 6 6 C3.375 5.625 3.375 5.625 1 5 C0.67 3.35 0.34 1.7 0 0 Z " fill="#44766A" transform="translate(216,398)"/>
<path d="M0 0 C0.33 1.65 0.66 3.3 1 5 C0.01 5.495 0.01 5.495 -1 6 C-1.66 5.67 -2.32 5.34 -3 5 C-3.625 2.9375 -3.625 2.9375 -4 1 C-2 0 -2 0 0 0 Z " fill="#2D6E5E" transform="translate(229,302)"/>
<path d="M0 0 C0.66 0 1.32 0 2 0 C2 2.64 2 5.28 2 8 C1.67 7.01 1.34 6.02 1 5 C0.01 5 -0.98 5 -2 5 C-1.34 3.35 -0.68 1.7 0 0 Z " fill="#6F9989" transform="translate(250,287)"/>
<path d="M0 0 C0 0.66 0 1.32 0 2 C-1.5625 3.125 -1.5625 3.125 -4 4 C-7.75 3.125 -7.75 3.125 -11 2 C-11 1.67 -11 1.34 -11 1 C-3.375 0 -3.375 0 0 0 Z " fill="#769E96" transform="translate(172,265)"/>
<path d="M0 0 C0.98120464 3.05263664 0.98120464 4.94736336 0 8 C-0.99 7.67 -1.98 7.34 -3 7 C-1.125 2.25 -1.125 2.25 0 0 Z " fill="#C3A973" transform="translate(242,226)"/>
<path d="M0 0 C0.99 0.33 1.98 0.66 3 1 C3.33 2.65 3.66 4.3 4 6 C3.01 5.67 2.02 5.34 1 5 C0.01 5.495 0.01 5.495 -1 6 C-1.042721 4.33388095 -1.04063832 2.66617115 -1 1 C-0.67 0.67 -0.34 0.34 0 0 Z " fill="#C3AF73" transform="translate(180,224)"/>
<path d="M0 0 C1 2 1 2 0.4375 4.5625 C-1 7 -1 7 -4.125 7.8125 C-5.548125 7.9053125 -5.548125 7.9053125 -7 8 C-6.02133662 6.85373678 -5.04205413 5.70800212 -4.0625 4.5625 C-3.51722656 3.92441406 -2.97195312 3.28632813 -2.41015625 2.62890625 C-1.63204305 1.73008851 -0.84063472 0.84063472 0 0 Z " fill="#C8B579" transform="translate(206,205)"/>
<path d="M0 0 C1.65 0.33 3.3 0.66 5 1 C5.33 2.32 5.66 3.64 6 5 C5.34 5 4.68 5 4 5 C3.67 4.34 3.34 3.68 3 3 C1.35 3.33 -0.3 3.66 -2 4 C-1.34 2.68 -0.68 1.36 0 0 Z " fill="#C8B882" transform="translate(210,199)"/>
<path d="M0 0 C0.99 0 1.98 0 3 0 C3 1.65 3 3.3 3 5 C1.35 5.33 -0.3 5.66 -2 6 C-1.34 4.02 -0.68 2.04 0 0 Z " fill="#165D4A" transform="translate(147,194)"/>
<path d="M0 0 C1.258125 -0.04125 2.51625 -0.0825 3.8125 -0.125 C4.52019531 -0.14820313 5.22789062 -0.17140625 5.95703125 -0.1953125 C8 0 8 0 11 2 C6.70700357 3.26264601 4.12168689 2.62950412 0 1 C0 0.67 0 0.34 0 0 Z " fill="#608A83" transform="translate(156,178)"/>
<path d="M0 0 C1.75 1.3125 1.75 1.3125 3 3 C3 3.66 3 4.32 3 5 C-0.26954202 4.43628586 -1.82575883 3.50037734 -4 1 C-2.1875 0.3125 -2.1875 0.3125 0 0 Z " fill="#72918C" transform="translate(207,413)"/>
<path d="M0 0 C1.5625 1.8125 1.5625 1.8125 3 4 C2.67 4.99 2.34 5.98 2 7 C1.34 6.67 0.68 6.34 0 6 C-0.6875 3.5 -0.6875 3.5 -1 1 C-0.67 0.67 -0.34 0.34 0 0 Z M3 3 C3.66 3 4.32 3 5 3 C4.67 3.66 4.34 4.32 4 5 C3.67 4.34 3.34 3.68 3 3 Z " fill="#427F71" transform="translate(151,271)"/>
<path d="M0 0 C1.32 0.66 2.64 1.32 4 2 C3.34 3.32 2.68 4.64 2 6 C0 5 0 5 -0.6875 3 C-0.790625 2.34 -0.89375 1.68 -1 1 C-0.67 0.67 -0.34 0.34 0 0 Z " fill="#13604E" transform="translate(153,257)"/>
<path d="M0 0 C0.66 0.66 1.32 1.32 2 2 C3.31747324 2.69748583 4.64914193 3.36959957 6 4 C3.36 4.66 0.72 5.32 -2 6 C-2.33 5.34 -2.66 4.68 -3 4 C-2.01 4 -1.02 4 0 4 C0 2.68 0 1.36 0 0 Z " fill="#D0BC82" transform="translate(247,222)"/>
<path d="M0 0 C2.125 0.375 2.125 0.375 4 1 C2.625 3 2.625 3 1 5 C0.34 5 -0.32 5 -1 5 C-1.33 5.66 -1.66 6.32 -2 7 C-2.125 4.625 -2.125 4.625 -2 2 C-1.34 1.34 -0.68 0.68 0 0 Z " fill="#4C8174" transform="translate(171,202)"/>
<path d="M0 0 C0.99 0.495 0.99 0.495 2 1 C2 2.32 2 3.64 2 5 C2.99 5.33 3.98 5.66 5 6 C5.33 6.99 5.66 7.98 6 9 C5.34 9.66 4.68 10.32 4 11 C1.52214277 7.33708062 0.51035831 4.3890815 0 0 Z " fill="#578A82" transform="translate(245,142)"/>
<path d="M0 0 C0.66 0.99 1.32 1.98 2 3 C1.125 5.6875 1.125 5.6875 0 8 C-0.33 7.34 -0.66 6.68 -1 6 C-1.66 6 -2.32 6 -3 6 C-2.67 4.68 -2.34 3.36 -2 2 C-1.34 2 -0.68 2 0 2 C0 1.34 0 0.68 0 0 Z " fill="#2D7262" transform="translate(283,107)"/>
<path d="M0 0 C0.99 0 1.98 0 3 0 C2.34 1.65 1.68 3.3 1 5 C0.01 5 -0.98 5 -2 5 C-1.125 1.125 -1.125 1.125 0 0 Z " fill="#5A9389" transform="translate(268,401)"/>
<path d="M0 0 C1.73662334 3.22515763 2.8905928 6.51329166 4 10 C3.34 9.67 2.68 9.34 2 9 C2 8.34 2 7.68 2 7 C1.34 7 0.68 7 0 7 C-1.125 2.25 -1.125 2.25 0 0 Z " fill="#629992" transform="translate(255,323)"/>
<path d="M0 0 C1.65 0 3.3 0 5 0 C5.33 0.99 5.66 1.98 6 3 C4.68 3.99 3.36 4.98 2 6 C1.34 5.67 0.68 5.34 0 5 C0.99 4.01 1.98 3.02 3 2 C2.01 1.34 1.02 0.68 0 0 Z " fill="#668A84" transform="translate(232,271)"/>
<path d="M0 0 C-2.55068845 2.35448165 -3.71017358 2.98327924 -7.25 3.1875 C-8.1575 3.125625 -9.065 3.06375 -10 3 C-6.68152292 -0.06320961 -4.44849969 -0.3033068 0 0 Z " fill="#417A6E" transform="translate(189,259)"/>
<path d="M0 0 C0.33 0.66 0.66 1.32 1 2 C1.66 2 2.32 2 3 2 C3 2.66 3 3.32 3 4 C4.65 4 6.3 4 8 4 C8 4.66 8 5.32 8 6 C5.69 5.67 3.38 5.34 1 5 C0.67 3.35 0.34 1.7 0 0 Z " fill="#D4C794" transform="translate(182,220)"/>
<path d="M0 0 C0.99 0 1.98 0 3 0 C3.33 1.32 3.66 2.64 4 4 C3.34 4 2.68 4 2 4 C1.67 4.99 1.34 5.98 1 7 C0.67 4.69 0.34 2.38 0 0 Z " fill="#40675F" transform="translate(260,194)"/>
<path d="M0 0 C0.66 0 1.32 0 2 0 C1.34 2.97 0.68 5.94 0 9 C-0.33 9 -0.66 9 -1 9 C-1.125 2.25 -1.125 2.25 0 0 Z " fill="#529181" transform="translate(151,191)"/>
</svg>
